<?xml version="1.0" standalone="no"?>
<!DOCTYPE svg PUBLIC "-//W3C//DTD SVG 1.1//EN" "http://www.w3.org/Graphics/SVG/1.1/DTD/svg11.dtd" >
<svg xmlns="http://www.w3.org/2000/svg">
<metadata>Generated by IcoMoon</metadata>
<defs>
<font id="icomoon" horiz-adv-x="512">
<font-face units-per-em="512" ascent="480" descent="-32" />
<missing-glyph horiz-adv-x="512" />
<glyph unicode="&#x20;" horiz-adv-x="256" d="" />
<glyph unicode="&#xe900;" glyph-name="CarsForRent" d="M430.131 135.454c-0.394-2.779-1.065-5.461-2.12-7.548-1.817-3.696-3.616-4.036-10.558-3.696-9.044 0.394-21.962 0-35.619-0.541 0-3.709 0.145-5.461 0.145-5.461 0.875-10.163 5.524-10.502 7.341-10.502h29.416c2.582 0 4.979 0 6.846 1.229 2.388 1.529 3.416 6.051 4.282 13.916 0.154 1.166 0.226 2.632 0.267 4.389v0.067c0 0.545 0.104 1.216 0.104 1.949v0.738c0 1.819 0 3.861-0.104 5.461zM84.454 135.454c0.408-2.779 1.070-5.461 2.098-7.548 1.871-3.696 3.661-4.036 10.617-3.696 9.013 0.394 21.944 0 35.619-0.541 0-3.709-0.145-5.461-0.145-5.461-0.87-10.163-5.546-10.502-7.394-10.502h-29.384c-2.582 0-4.771 0-6.847 1.229-2.465 1.404-3.385 6.051-4.282 13.916-0.132 1.166-0.204 2.632-0.281 4.389v0.067c0 0.545-0.050 1.216-0.050 1.949v0.738c0.050 1.819 0.050 3.861 0.050 5.461zM418.524 223.861c-1.83-7.262-4.979-6.878-10.449-8.563-5.478-1.68-9.099-2.882-10.956-2.485-1.839 0.411-4.975 2.905-8.532 2.829-3.539-0.156-20.145-2.905-26.303-2.905-6.139 0-9.108 2.56-14.033 3.794-4.898 1.197-7.608 1.197-7.608 1.197s11.79 11.436 33.258 17.299c21.377 5.93 32.81 7.012 44.622 6.462 0 0.152 1.858-10.297 0-17.63zM327.228 163.52c-9.783-1.269-50.734-1.618-69.842-1.618-19.162 0-60.091 0.411-69.851 1.618-9.987 1.291-22.964 13.072-14.019 22.43 12.084 12.723 9.846 12.308 37.322 15.815 23.788 3.039 41.808 3.182 46.548 3.182 4.631 0 22.76-0.224 46.538-3.182 27.476-3.508 25.207-3.092 37.296-15.815 8.94-9.358-4.010-21.139-13.992-22.43zM166.496 216.599c-4.944-1.238-7.893-3.861-14.051-3.785-6.149 0-22.746 2.767-26.29 2.905-3.57 0.134-6.688-2.364-8.541-2.846-1.858-0.456-5.487 0.805-10.947 2.489-5.451 1.685-8.672 1.238-10.476 8.558-1.831 7.275 0 17.724 0 17.724 11.849 0.528 23.276-0.554 44.677-6.476 21.364-5.926 33.267-17.304 33.267-17.304s-2.727-0.072-7.639-1.264zM141.309 300.893c3.285 7.526 13.126 22.671 17.911 25.366 1.155 0.688 11.355 3.848 36.851 5.533 23.453 1.55 49.362 2.145 61.355 2.145 12.057 0 37.943-0.595 61.401-2.145 25.411-1.685 35.728-4.787 36.82-5.533 6.153-4.174 14.618-17.84 17.902-25.366 3.262-7.557 7.671-22.368 6.846-24.392-0.811-2.016 0.825-3.026-10.25-2.145-11.010 0.805-80.096 1.681-112.611 1.681-32.488 0-101.577-0.876-112.647-1.681-11.101-0.804-9.438 0.13-10.258 2.145-0.96 2.024 3.407 16.776 6.679 24.392zM432.335 198.946c0 20.683-2.737 40.874-3.838 43.094-0.798 1.613-6.072 5.85-18.020 13.863-12.103 8.156-11.835 6.923-14.038 12.263 1.985 0.599 3.911 1.747 5.079 1.868 2.569 0.286 2.732-2.14 8.124-2.14 5.387 0 17.077 1.404 19.493 3.772 2.384 2.355 3.135 3.173 3.135 5.242 0 2.082-1.25 6.404-3.543 8.96-2.32 2.57-12.261 3.839-18.061 4.58-5.809 0.742-6.625 0-8.142-0.947-2.397-1.47-2.529-15.016-2.529-15.016l-5.646-0.13c-3.711 8.956-8.836 26.988-16.846 41.213-8.723 15.485-17.907 20.321-21.709 21.527-3.757 1.158-7.173 1.948-32.81 4.523-26.18 2.69-47.014 3.025-65.601 3.025-18.623 0-39.457-0.394-65.637-3.025-25.623-2.615-29.026-3.365-32.782-4.523-3.779-1.121-12.972-6.042-21.768-21.527-7.998-14.225-13.118-32.257-16.787-41.213l-5.695 0.13c0 0-0.064 13.546-2.505 15.016-1.486 0.947-2.329 1.748-8.151 0.947-5.79-0.822-15.695-2.011-18.020-4.58-2.334-2.557-3.561-6.878-3.561-8.961 0-2.069 0.779-2.945 3.153-5.242 2.388-2.369 14.078-3.772 19.465-3.772 5.41 0 5.537 2.427 8.124 2.141 1.174-0.12 3.135-1.269 5.061-1.868-2.261-5.341-1.925-4.107-13.996-12.263-11.944-8.080-17.295-12.25-18.052-13.863-1.092-2.221-3.843-22.412-3.843-43.095 0-20.669 1.504-39.246 1.504-45.847 0-2.762 0-7.624 0.635-12.259 0.398-2.767 0.997-5.466 2.129-7.548 1.844-3.678 3.557-4.036 10.567-3.678 9.017 0.38 22.103 0 35.56-0.567 8.994-0.33 18.228-0.671 26.435-0.876 20.503-0.394 14.49 2.967 23.231 2.82 8.772-0.111 43.286-1.529 74.849-1.529 31.582 0 66.149 1.416 74.83 1.529 8.767 0.147 2.728-3.213 23.24-2.82 8.206 0.139 17.431 0.545 26.462 0.876 13.448 0.491 26.579 0.947 35.524 0.567 7.041-0.358 8.786 0 10.616 3.678 1.029 2.082 1.704 4.782 2.12 7.548 0.68 4.635 0.598 9.497 0.598 12.259 0.159 6.524 1.645 25.178 1.645 45.847z" />
<glyph unicode="&#xe901;" glyph-name="OthersMenFashion" d="M366.786 259.31c-21.701 0-39.283-17.582-39.283-39.283s17.582-39.283 39.283-39.283c21.701 0 39.283 17.582 39.283 39.283s-17.582 39.283-39.283 39.283v0zM260.414 259.31c-21.701 0-39.283-17.582-39.283-39.283s17.582-39.283 39.283-39.283c21.701 0 39.283 17.582 39.283 39.283s-17.582 39.283-39.283 39.283v0zM154.042 259.31c-21.701 0-39.283-17.582-39.283-39.283s17.581-39.283 39.283-39.283c21.701 0 39.283 17.582 39.283 39.283s-17.582 39.283-39.283 39.283v0z" />
<glyph unicode="&#xe902;" glyph-name="OthersHomeFurniture" d="M366.786 259.31c-21.701 0-39.283-17.582-39.283-39.283s17.582-39.283 39.283-39.283c21.701 0 39.283 17.582 39.283 39.283s-17.582 39.283-39.283 39.283v0zM260.414 259.31c-21.701 0-39.283-17.582-39.283-39.283s17.582-39.283 39.283-39.283c21.701 0 39.283 17.582 39.283 39.283s-17.582 39.283-39.283 39.283v0zM154.042 259.31c-21.701 0-39.283-17.582-39.283-39.283s17.581-39.283 39.283-39.283c21.701 0 39.283 17.582 39.283 39.283s-17.582 39.283-39.283 39.283v0z" />
<glyph unicode="&#xe903;" glyph-name="OthersGaming" d="M366.786 259.31c-21.701 0-39.283-17.582-39.283-39.283s17.582-39.283 39.283-39.283c21.701 0 39.283 17.582 39.283 39.283s-17.582 39.283-39.283 39.283v0zM260.414 259.31c-21.701 0-39.283-17.582-39.283-39.283s17.582-39.283 39.283-39.283c21.701 0 39.283 17.582 39.283 39.283s-17.582 39.283-39.283 39.283v0zM154.042 259.31c-21.701 0-39.283-17.582-39.283-39.283s17.581-39.283 39.283-39.283c21.701 0 39.283 17.582 39.283 39.283s-17.582 39.283-39.283 39.283v0z" />
<glyph unicode="&#xe904;" glyph-name="OthersFoodSupplements" d="M366.786 259.31c-21.701 0-39.283-17.582-39.283-39.283s17.582-39.283 39.283-39.283c21.701 0 39.283 17.582 39.283 39.283s-17.582 39.283-39.283 39.283v0zM260.414 259.31c-21.701 0-39.283-17.582-39.283-39.283s17.582-39.283 39.283-39.283c21.701 0 39.283 17.582 39.283 39.283s-17.582 39.283-39.283 39.283v0zM154.042 259.31c-21.701 0-39.283-17.582-39.283-39.283s17.581-39.283 39.283-39.283c21.701 0 39.283 17.582 39.283 39.283s-17.582 39.283-39.283 39.283v0z" />
<glyph unicode="&#xe905;" glyph-name="OthersFashionBeauty" d="M366.786 259.31c-21.701 0-39.283-17.582-39.283-39.283s17.582-39.283 39.283-39.283c21.701 0 39.283 17.582 39.283 39.283s-17.582 39.283-39.283 39.283v0zM260.414 259.31c-21.701 0-39.283-17.582-39.283-39.283s17.582-39.283 39.283-39.283c21.701 0 39.283 17.582 39.283 39.283s-17.582 39.283-39.283 39.283v0zM154.042 259.31c-21.701 0-39.283-17.582-39.283-39.283s17.581-39.283 39.283-39.283c21.701 0 39.283 17.582 39.283 39.283s-17.582 39.283-39.283 39.283v0z" />
<glyph unicode="&#xe906;" glyph-name="OtherServices" d="M366.786 259.31c-21.701 0-39.283-17.582-39.283-39.283s17.582-39.283 39.283-39.283c21.701 0 39.283 17.582 39.283 39.283s-17.582 39.283-39.283 39.283v0zM260.414 259.31c-21.701 0-39.283-17.582-39.283-39.283s17.582-39.283 39.283-39.283c21.701 0 39.283 17.582 39.283 39.283s-17.582 39.283-39.283 39.283v0zM154.042 259.31c-21.701 0-39.283-17.582-39.283-39.283s17.581-39.283 39.283-39.283c21.701 0 39.283 17.582 39.283 39.283s-17.582 39.283-39.283 39.283v0z" />
<glyph unicode="&#xe907;" glyph-name="OthersElectronics" d="M366.786 259.31c-21.701 0-39.283-17.582-39.283-39.283s17.582-39.283 39.283-39.283c21.701 0 39.283 17.582 39.283 39.283s-17.582 39.283-39.283 39.283v0zM260.414 259.31c-21.701 0-39.283-17.582-39.283-39.283s17.582-39.283 39.283-39.283c21.701 0 39.283 17.582 39.283 39.283s-17.582 39.283-39.283 39.283v0zM154.042 259.31c-21.701 0-39.283-17.582-39.283-39.283s17.581-39.283 39.283-39.283c21.701 0 39.283 17.582 39.283 39.283s-17.582 39.283-39.283 39.283v0z" />
<glyph unicode="&#xe908;" glyph-name="OthersBusinessesIndustrial" d="M366.786 259.31c-21.701 0-39.283-17.582-39.283-39.283s17.582-39.283 39.283-39.283c21.701 0 39.283 17.582 39.283 39.283s-17.582 39.283-39.283 39.283v0zM260.414 259.31c-21.701 0-39.283-17.582-39.283-39.283s17.582-39.283 39.283-39.283c21.701 0 39.283 17.582 39.283 39.283s-17.582 39.283-39.283 39.283v0zM154.042 259.31c-21.701 0-39.283-17.582-39.283-39.283s17.581-39.283 39.283-39.283c21.701 0 39.283 17.582 39.283 39.283s-17.582 39.283-39.283 39.283v0z" />
<glyph unicode="&#xe909;" glyph-name="OthersBabyKids" d="M366.786 259.31c-21.701 0-39.283-17.582-39.283-39.283s17.582-39.283 39.283-39.283c21.701 0 39.283 17.582 39.283 39.283s-17.582 39.283-39.283 39.283v0zM260.414 259.31c-21.701 0-39.283-17.582-39.283-39.283s17.582-39.283 39.283-39.283c21.701 0 39.283 17.582 39.283 39.283s-17.582 39.283-39.283 39.283v0zM154.042 259.31c-21.701 0-39.283-17.582-39.283-39.283s17.581-39.283 39.283-39.283c21.701 0 39.283 17.582 39.283 39.283s-17.582 39.283-39.283 39.283v0z" />
<glyph unicode="&#xe90a;" glyph-name="OtherMotors" d="M366.786 259.31c-21.701 0-39.283-17.582-39.283-39.283s17.582-39.283 39.283-39.283c21.701 0 39.283 17.582 39.283 39.283s-17.582 39.283-39.283 39.283v0zM260.414 259.31c-21.701 0-39.283-17.582-39.283-39.283s17.582-39.283 39.283-39.283c21.701 0 39.283 17.582 39.283 39.283s-17.582 39.283-39.283 39.283v0zM154.042 259.31c-21.701 0-39.283-17.582-39.283-39.283s17.581-39.283 39.283-39.283c21.701 0 39.283 17.582 39.283 39.283s-17.582 39.283-39.283 39.283v0z" />
<glyph unicode="&#xe90b;" glyph-name="OtherMobileTablet" d="M366.786 259.31c-21.701 0-39.283-17.582-39.283-39.283s17.582-39.283 39.283-39.283c21.701 0 39.283 17.582 39.283 39.283s-17.582 39.283-39.283 39.283v0zM260.414 259.31c-21.701 0-39.283-17.582-39.283-39.283s17.582-39.283 39.283-39.283c21.701 0 39.283 17.582 39.283 39.283s-17.582 39.283-39.283 39.283v0zM154.042 259.31c-21.701 0-39.283-17.582-39.283-39.283s17.581-39.283 39.283-39.283c21.701 0 39.283 17.582 39.283 39.283s-17.582 39.283-39.283 39.283v0z" />
<glyph unicode="&#xe90c;" glyph-name="OtherJobs" d="M366.786 259.31c-21.701 0-39.283-17.582-39.283-39.283s17.582-39.283 39.283-39.283c21.701 0 39.283 17.582 39.283 39.283s-17.582 39.283-39.283 39.283v0zM260.414 259.31c-21.701 0-39.283-17.582-39.283-39.283s17.582-39.283 39.283-39.283c21.701 0 39.283 17.582 39.283 39.283s-17.582 39.283-39.283 39.283v0zM154.042 259.31c-21.701 0-39.283-17.582-39.283-39.283s17.581-39.283 39.283-39.283c21.701 0 39.283 17.582 39.283 39.283s-17.582 39.283-39.283 39.283v0z" />
<glyph unicode="&#xe90d;" glyph-name="OthersForSale" d="M366.786 259.31c-21.701 0-39.283-17.582-39.283-39.283s17.582-39.283 39.283-39.283c21.701 0 39.283 17.582 39.283 39.283s-17.582 39.283-39.283 39.283v0zM260.414 259.31c-21.701 0-39.283-17.582-39.283-39.283s17.582-39.283 39.283-39.283c21.701 0 39.283 17.582 39.283 39.283s-17.582 39.283-39.283 39.283v0zM154.042 259.31c-21.701 0-39.283-17.582-39.283-39.283s17.581-39.283 39.283-39.283c21.701 0 39.283 17.582 39.283 39.283s-17.582 39.283-39.283 39.283v0z" />
<glyph unicode="&#xe980;" glyph-name="Bags" d="M255.647 264.136c-82.626 0-149.716-27.542-149.716-61.44s67.089-61.44 149.716-61.44c82.979 0 150.422 27.542 150.422 61.44s-67.443 61.44-150.422 61.44zM255.647 154.321c-7.062 0-13.065 6.003-13.065 13.065 0 7.415 6.003 13.065 13.065 13.065 7.415 0 13.418-5.649 13.418-13.065 0-7.062-6.003-13.065-13.418-13.065zM255.647 391.254c33.545 0 62.146-50.847 73.093-121.468 2.118-0.706 4.591-1.060 7.062-1.766-10.946 76.271-42.373 129.589-80.154 129.589-37.429 0-68.855-53.319-79.802-129.589 2.471 0.706 4.944 1.060 7.062 1.766 10.946 70.62 39.547 121.468 72.739 121.468zM153.247 44.505h99.222v83.332c-43.431 0.706-88.276 8.827-119.349 24.364l20.127-107.697zM259.178 44.505h99.222l20.127 107.697c-31.073-15.536-75.917-23.658-119.349-24.364v-83.332z" />
<glyph unicode="&#xe981;" glyph-name="BeautyCosmetics" d="M220.925 370.067c-2.825 0-6.003 0-9.18-0.353 11.653 4.944 24.364 7.769 38.135 7.769 51.553 0 93.572-41.666 93.572-92.866 0-13.418-2.825-26.13-8.122-37.782 0.353 3.178 0.706 6.356 0.706 9.534 0 62.853-51.553 113.7-115.112 113.7zM164.076 89.35c10.593-25.776 48.022-44.844 93.22-44.844s82.626 19.067 93.219 44.844c-20.833-18.361-54.731-30.367-93.219-30.367s-72.386 12.005-93.219 30.367zM218.806 193.868c-39.9 15.183-68.149 53.672-68.149 98.163 0 58.262 48.022 105.578 106.637 105.578s106.637-47.316 106.637-105.578c0-44.491-28.248-82.979-68.149-98.163 42.019-9.534 72.033-34.251 72.033-63.205 0-37.429-49.435-67.443-110.522-67.443s-110.168 30.014-110.168 67.443c0 28.954 29.661 53.671 71.68 63.206zM257.295 197.399c52.613 0 95.691 42.373 95.691 94.632s-43.079 94.985-95.691 94.985c-52.613 0-95.691-42.726-95.691-94.985s43.078-94.632 95.691-94.632zM169.019 130.663c0-21.539 36.37-45.55 88.276-45.55s88.276 24.011 88.276 45.55c0 26.13-30.367 48.375-75.564 51.906v4.591c-4.237-0.353-8.474-0.706-12.712-0.706s-8.475 0.353-12.712 0.706v-4.591c-45.197-3.531-75.564-25.423-75.564-51.906zM257.295 178.332c-44.138 0-80.154-19.067-80.154-42.726s36.017-42.726 80.154-42.726c44.138 0 80.154 19.067 80.154 42.726s-36.017 42.726-80.154 42.726z" />
<glyph unicode="&#xe982;" glyph-name="FashionBeauty" d="M365.226 355.943v41.666h-213.627v-41.666h213.627zM334.86 384.544h17.655v-15.889h-17.655v15.889zM301.315 384.544h20.48v-15.889h-20.48v15.889zM264.945 384.544h23.305v-15.889h-23.305v15.889zM228.576 384.544h23.305v-15.889h-23.305v15.889zM195.031 384.544h20.833v-15.889h-20.833v15.889zM164.664 384.544h17.302v-15.889h-17.302v15.889zM368.404 342.878h-24.011l52.26-218.218-12.712-3.178-52.966 221.396h-13.418l42.726-178.317-12.712-2.825-43.431 181.142h-155.719l-66.031-277.539c5.296 2.471 12.005 4.237 18.715 4.237 18.362 0 27.189-13.065 50.494-13.065s33.545 13.065 54.731 13.065c21.186 0 18.362-13.065 49.788-13.065s28.601 13.065 49.788 13.065c21.186 0 31.426-13.065 54.731-13.065s32.132 13.065 50.494 13.065c9.18 0 17.655-3.178 24.364-6.356l-67.089 279.658z" />
<glyph unicode="&#xe983;" glyph-name="AccessoriesJewelry" d="M257.063 368.53h-39.761l39.761-56.378zM252.613 372.684l-12.759 9.792-18.99-9.792zM297.121 372.684l-18.99 9.792-12.759-9.792zM261.217 312.152l39.761 56.378h-39.761zM212.257 385.443l2.374-11.275 21.958 10.979-6.231 5.935zM273.976 384.257l-14.837 6.825-14.837-6.825 14.837-10.979zM305.726 385.443l-17.803 5.638-6.231-5.935 21.957-10.979zM347.861 257.554c-9.792 9.199-20.474 16.913-32.046 22.551-0.89 0.89-1.781 1.483-2.967 2.077-6.825 3.56-11.276 10.682-11.276 18.693 0 6.528 2.967 12.462 8.012 16.616 5.638 4.451 6.528 12.463 2.077 18.101-2.671 3.264-6.528 5.045-10.682 4.748l33.53 30.563-33.827 24.925h-83.38l-33.827-24.925 33.53-30.266c-3.857 0-8.012-1.483-10.386-4.748-4.451-5.638-3.56-13.649 2.077-18.101 5.044-4.154 8.012-10.089 8.012-16.616 0-7.715-4.154-14.837-11.275-18.694-1.187-0.594-2.077-1.187-2.968-2.077-41.839-20.474-71.214-62.906-71.214-110.382 0-67.060 58.455-123.735 127.888-123.735 33.233 0 64.686 12.759 88.721 35.904 24.628 23.442 37.981 54.597 37.981 87.534s-13.649 64.093-37.981 87.831zM212.257 368.53h-25.221c-1.187 0-2.077 0.89-2.077 2.077s0.89 2.077 2.077 2.077h23.738l-2.671 13.65c-0.297 1.187 0.297 2.077 1.483 2.374l21.067 6.528c0.594 0.296 1.483 0 2.077-0.594l8.309-7.715 17.507 8.011c0.594 0.297 1.187 0.297 1.781 0l17.507-8.011 8.308 7.715c0.594 0.594 1.187 0.594 2.077 0.594l20.771-6.528c0.89-0.296 1.483-1.483 1.483-2.374l-2.967-13.65h23.738c1.187 0 2.077-0.89 2.077-2.077s-0.89-2.077-2.077-2.077h-25.221l-45.399-64.389-0.296-0.296c0 0 0 0-0.296 0v0c0 0 0 0-0.296 0h-1.187c0 0 0 0-0.296 0v0c0 0 0 0-0.296 0v0l-0.296 0.296-45.399 64.389zM276.351 292.272c-5.638 0.89-11.572 1.187-17.507 1.187s-11.572-0.296-17.507-1.187c0.594 2.968 0.89 5.638 0.89 8.605 0 7.418-1.78 14.54-5.044 21.067l21.661-19.584 21.661 19.584c-3.264-6.528-5.045-13.649-5.045-21.067 0-2.967 0.296-5.934 0.89-8.605zM259.14 74.178c-54.301 0-99.996 43.916-99.996 95.546 0 51.927 45.696 95.546 99.7 95.546 53.411 0 98.81-43.916 98.81-95.546s-45.103-95.546-98.513-95.546z" />
<glyph unicode="&#xe984;" glyph-name="PerfumesOud" d="M319.499 403.494c-34.686 0-64.048-16.658-73.94-39.628-0.333 0.234-0.677 0.357-1.030 0.357-1.972 0-3.663-4.207-4.51-9.817h-17.192c-1.41 2.805-3.664 5.329-6.201 7.013 1.41 1.403 3.101 3.646 0.564 5.049-3.663 1.963-0.564 8.976-9.3 9.257h-0.564c-8.737-0.281-5.637-7.013-9.3-9.257-2.819-1.403-0.845-3.647 0.564-5.049-4.792-3.085-7.892-8.415-7.892-14.306 0-6.171 3.382-11.5 8.173-14.586-2.536-2.524-3.1-3.927-0.564-6.171 1.877-1.661 0.204-5.625-0.792-7.573h-5.972c-2.255 0-4.227-1.963-4.227-4.208v-2.665h40.303v2.665c0 2.244-1.973 4.208-4.227 4.208h-5.149c-0.999 1.898-2.634 5.719-0.77 7.573 2.537 2.524 1.973 3.647-0.564 6.171 2.819 1.684 5.073 4.208 6.482 7.013h17.192c0.846-5.891 2.537-9.817 4.51-9.817 0.157 0 0.313 0.028 0.466 0.076 9.892-22.969 39.254-39.627 73.939-39.627 42.805 0 77.506 25.368 77.506 56.661s-34.7 56.661-77.506 56.661zM178.007 241.018c6.412-2.66 23.511-2.924 28.854-2.924s22.442 0.266 28.854 2.924c5.076 2.127 5.344 3.457 5.344 7.977v50.255c0 5.85-5.611 9.572-11.488 9.572h-45.418c-5.878 0-11.488-3.722-11.488-9.572v-50.255c0-4.52 0.268-5.85 5.344-7.977zM240.698 237.8c-0.609-0.321-1.297-0.64-2.072-0.965-7.228-2.998-25.677-3.231-31.159-3.231s-23.931 0.233-31.152 3.228c-0.778 0.326-1.466 0.646-2.077 0.968-19.9-8.166-56.536-30.494-56.536-84.234 0-75.736 54.677-99.017 59.186-99.017v0h61.16c4.51 0 59.187 23.281 59.187 99.017 0 53.74-36.636 76.068-56.536 84.234zM207.467 233.606c5.482 0 23.931 0.233 31.159 3.23 0.775 0.325 1.463 0.645 2.072 0.965-1.834 0.752-3.53 1.388-5.038 1.914-6.084-1.772-18.646-2.418-28.193-2.418-9.549 0-22.116 0.646-28.194 2.417-1.508-0.525-3.202-1.161-5.036-1.913 0.611-0.321 1.299-0.642 2.077-0.968 7.221-2.994 25.67-3.227 31.152-3.227z" />
<glyph unicode="&#xe985;" glyph-name="BeautyCare" d="M141.737 354.379l-48.84 15.84c-2.31 0-4.29-30.36-4.29-49.5 0-19.47 1.98-49.5 4.29-49.5l48.84 15.84v67.321zM413.989 358.999c-5.28 11.88-35.971 23.43-46.2 27.060-53.791 19.47-94.711 6.6-94.711 6.6l-124.081-38.28v-67.651c0 0 0 0 0-0.33l94.051-31.351c29.041-9.57 36.961-44.881 37.95-83.491 0.66-27.39-2.97-38.281-10.23-66-7.59-29.37 12.21-46.2 27.060-56.101s33 4.62 33 4.62c3.96 3.3 11.22 11.55 8.58 20.46-2.64 9.24-5.94 17.16-2.97 35.971 2.97 18.48 7.92 72.27 0.33 106.261-1.98 8.25-8.58 19.47-8.25 23.43 0.33 4.62 2.97 5.28 4.62 5.61 10.89 1.65 22.44 4.29 34.981 8.91 10.23 3.63 40.921 15.18 46.2 27.060 3.3 7.59 4.29 19.8 4.29 38.611-0.33 18.81-1.32 31.021-4.62 38.611zM318.948 278.148c-3.63 0-7.26 0.33-10.56 1.32l51.81 51.811c0.99-3.3 1.32-6.93 1.32-10.56l-42.57-42.57zM292.548 287.388l59.731 59.731c1.65-2.31 3.3-4.62 4.62-7.26l-57.091-57.091c-2.64 1.32-4.95 2.97-7.26 4.62zM276.707 319.399l43.89 43.56c3.63 0 6.93-0.66 10.23-1.65l-52.471-52.14c-0.99 3.3-1.65 6.6-1.65 10.23zM306.738 361.309l-28.050-28.050c3.96 13.2 14.52 23.76 28.050 28.050zM281.658 300.588l57.75 57.421c2.64-1.32 4.95-2.97 7.26-4.95l-60.060-59.731c-1.98 2.31-3.63 4.62-4.95 7.26zM333.469 280.458l26.070 26.071c-4.62-12.21-14.19-21.78-26.070-26.071z" />
<glyph unicode="&#xe986;" glyph-name="MensAccessories" d="M414.573 316.69c-43.52-15.048-86.698-30.096-130.219-45.15 0.653 2.295 0.977 4.585 1.313 6.544 0.653 3.272-0.983 5.238-4.255 5.555-2.949 0.336-5.891 0.336-8.839-0.323-3.92-0.653-7.851-1.966-11.776-2.942-3.925-0.989-7.527-0.336-10.47 1.959-0.983 0.983-2.29 1.636-3.596 2.613-2.942 1.965-5.885 4.255-8.833 6.22-3.601 2.619-7.197 1.965-10.146-1.313-1.959-1.965-2.942-4.908-4.578-7.197 0-0.653-0.329-1.313-0.653-1.63-3.596-3.601-7.197-6.55-11.776-7.857-3.601-0.983-6.544-0.329-9.163 2.295-0.983 0.977-1.306 1.959-1.306 3.266v67.401h-71.321c-0.653-0.323-1.313-0.653-1.636-0.983-3.272-3.601-6.544-7.197-9.817-10.799-4.255-4.572-8.834-8.827-13.412-13.412-2.942-2.613-5.561-5.885-7.198-9.481-1.966-3.931-2.29-8.186 0-12.106 0.653-0.989 1.636-1.966 2.619-3.278-1.636 0.977-3.272 2.942-4.255 4.908-1.636 4.255-0.653 8.18 1.313 11.782 2.619 4.572 6.544 8.504 10.14 12.106 2.942 2.942 5.561 5.885 8.18 8.834-6.868 2.295-19.303 0.983-27.483-8.834s-8.834-23.887-1.313-34.027c3.925-4.908 8.51-8.504 14.725-10.146 8.18-2.29 16.031-0.977 23.228 3.596v-10.14c0.983 0 1.96 0 2.942-0.329 1.306-0.329 2.29-0.983 2.619-2.295 0.323-1.63-1.966-5.232-3.925-5.232h-12.106v8.827h-9.822v-9.163h-30.425v-4.908c-0.983-0.324-1.636-0.324-2.619-0.324v-1.965c0-50.059 0-100.117-0.329-150.175v-1.313c0-3.596 2.29-6.221 5.891-6.873 1.306-0.324 2.613-0.324 3.925-0.324h160.32c5.232 0 8.18 2.942 8.18 8.175v145.95c2.29-1.636 4.908-2.295 7.527-2.295 0.983 0 1.307-0.323 1.636-1.306 8.18-23.887 16.684-47.769 25.194-71.65 0.653-1.642 1.313-1.966 2.619-1.966 8.504-0.336 17.337 0 25.847 0.977 19.303 1.966 37.952 6.221 56.279 12.435 24.535 8.18 47.763 19.297 69.361 33.368 3.272 1.965 6.221 4.255 9.486 6.22-10.805 29.125-21.281 57.909-32.074 86.704zM104.083 304.913c-0.983 1.313-0.653 3.601 0.983 4.908 1.96 1.306 4.255 0.983 6.215-0.983-4.255 2.619-7.856-0.323-7.198-3.925zM134.503 334.686c2.29 0 4.255-1.96 4.255-4.255s-1.965-4.255-4.255-4.255c-2.613 0-4.255 1.636-4.255 4.255 0.006 2.295 1.965 4.255 4.255 4.255zM130.254 283.645c0 2.29 1.959 4.255 4.255 4.255s4.255-1.959 4.255-4.255-1.965-4.255-4.255-4.255c-2.619 0.006-4.255 1.966-4.255 4.255zM134.974 267.125c-1.883 2.507-1.254 6.898 1.877 9.41 3.137 2.507 8.151 2.507 11.917-1.883-8.151 4.391-14.424-1.253-13.794-7.527zM146.938 302.295c-2.619 0-4.255 1.966-4.255 4.255 0 2.619 1.959 4.255 4.255 4.255s4.255-1.959 4.255-4.255c0-2.289-1.965-4.255-4.255-4.255zM162.969 279.396c-2.29 0-4.255 1.96-4.255 4.255s1.959 4.255 4.255 4.255 4.255-1.959 4.255-4.255-1.959-4.255-4.255-4.255zM162.969 326.183c-2.29 0-4.255 1.636-4.255 4.255 0 2.289 1.959 4.255 4.255 4.255s4.255-1.959 4.255-4.255-1.959-4.255-4.255-4.255zM179.006 302.295c-2.29 0-4.255 1.966-4.255 4.255 0 2.295 1.959 4.255 4.255 4.255 2.619 0 4.255-1.959 4.255-4.255-0.006-2.613-1.965-4.255-4.255-4.255zM191.764 279.396c-2.619 0-4.255 1.96-4.255 4.255s1.959 4.255 4.255 4.255 4.255-1.959 4.255-4.255c0-2.619-1.965-4.255-4.255-4.255zM191.764 326.183c-2.29-0.329-4.255 1.636-4.255 4.255 0 2.289 1.959 4.255 4.255 4.255s4.255-1.959 4.255-4.255-1.965-4.255-4.255-4.255zM253.929 265.325c-0.653-0.329-0.983-0.329-1.313-0.329-1.959-0.329-3.272-1.307-4.255-2.942-0.329-0.983-0.983-1.313-1.959-1.313h-2.942c0 2.289 0 4.578 0 6.868 0 1.313 0.983 2.29 2.29 1.636 2.619-0.983 5.561-2.29 8.18-3.596v-0.324z" />
<glyph unicode="&#xe987;" glyph-name="PersonalHealthCare" d="M375.908 251.554c-0.324 0.965-0.642 2.248-0.642 3.531-0.324 22.151-5.137 43.014-15.725 62.593-11.888 21.828-29.543 36.917-52.33 46.227-2.889 0.965-6.097 1.925-8.986 3.207-1.283 0.642-2.889 1.601-4.173 2.566-16.372 15.407-35.952 24.717-58.421 27.289-1.924 0.318-3.531 0.318-5.137 0.642h-12.841c-2.566-0.324-5.137-0.642-8.027-0.642-21.504-3.213-40.125-12.2-55.855-27.289-15.407-14.766-25.035-32.421-29.207-52.966-2.572-12.841-2.572-26-0.323-38.841 0.323-1.283 0-2.889-0.323-4.173-4.814-15.725-6.745-31.779-6.097-48.151 0.965-18.944 5.456-37.235 12.2-54.89 3.849-10.269 8.668-20.227 14.124-29.855 0.965-2.242 1.601-4.814 1.924-7.056 4.496-24.399 16.372-44.944 35.31-61.31 14.124-12.2 30.814-20.233 49.435-23.435 3.531-0.642 7.062-0.965 10.593-1.289 0.642 0 0.965-0.324 1.601-0.324h12.841c2.89 0.324 5.456 0.642 8.339 0.965 20.868 2.889 38.848 11.235 54.572 25.041 14.442 12.524 24.394 27.925 30.497 45.904 0.324 0.965 1.289 1.93 2.248 2.572 17.655 14.442 29.855 32.738 34.986 55.214 6.108 25.995 2.577 51.035-10.582 74.469zM255.853 372.574c-46.868-4.173-84.745-24.717-113.317-62.276 9.31 54.249 66.772 82.815 113.317 62.275zM203.529 139.844c-12.2 0.318-22.151 9.945-22.151 22.146 0 12.206 9.952 22.151 22.151 22.151 12.518 0 22.151-9.94 22.151-22.464 0-12.206-9.952-21.834-22.151-21.834zM221.184 252.196c-23.752-6.103-41.731-19.585-55.214-39.806-7.703-11.558-13.159-24.399-16.69-37.882-0.323-0.635-0.323-0.959-0.642-1.925-1.283 3.531-2.572 6.421-3.531 9.634-5.779 16.69-9.31 33.38-8.987 51.035 0.323 27.283 8.668 51.359 26 72.222 21.186 26 48.793 41.413 81.214 47.51 23.435 4.173 45.904 0.642 67.089-10.911 18.615-10.269 31.138-26 38.517-45.58 4.814-12.2 6.745-24.717 7.704-37.559v-1.93c-0.318 0-0.959 0-1.283-0.318h-40.766c-17.014 0-34.027 0.318-51.041 0.318-14.124 0.006-28.572-1.277-42.373-4.808zM265.805 77.245c-1.93-3.537-5.137-5.455-8.668-6.421-6.097-1.925-11.876-1.601-17.655 1.289-1.924 1.283-3.531 2.884-5.137 4.496-0.642 0.959-0.965 2.566-0.642 3.207 0.642 0.965 1.924 1.606 3.208 1.606 2.566 0.318 4.814 0 7.062 0h6.103c4.173 0 8.027 0.318 12.2 0h1.918c1.936-0.642 2.896-2.248 1.613-4.178zM263.557 91.050h-13.482c-4.173 0-8.345 0-12.2 0-0.965 0-1.924 0-2.572 0.318-1.601 0.965-1.924 1.93-1.283 3.537 2.572 4.496 6.421 6.745 11.234 7.385 0.965 0.324 1.924-0.324 2.889-0.642 0.965-0.324 2.566-0.642 3.531-0.324 4.496 2.254 8.021 0.324 11.559-2.242 1.283-0.642 2.248-2.254 2.889-3.537 1.283-2.572 0.324-4.496-2.566-4.496zM296.942 139.844c-12.2 0-22.151 9.945-22.151 22.146 0 12.524 9.634 22.151 22.151 22.151 11.876 0 21.827-9.94 21.827-22.151 0-12.194-9.952-22.145-21.827-22.145zM356.005 153.009c-0.324-0.642-0.959-0.959-1.601-1.925 0 17.655-3.849 34.022-11.882 49.117-8.027 15.401-19.256 27.924-33.709 38.194h51.041c1.601 0 2.572-0.318 3.213-1.924 12.841-29.22 10.593-56.826-7.062-83.462zM309.024 161.348c-6.745-1.601-13.159-1.601-19.909 0.324-3.207 0.959-6.097-0.642-7.056-3.537-0.965-3.207 0.635-6.091 4.173-7.056 4.173-1.289 8.668-1.93 12.841-2.572 4.496 0.635 8.345 1.283 12.194 2.248 3.531 0.642 5.137 3.531 4.496 6.745-0.647 2.889-3.531 4.814-6.738 3.849zM215.605 161.348c-6.744-1.925-13.8-1.925-20.544 0.324-1.924 0.635-3.531 0.318-4.814-0.642-1.601-1.283-2.566-2.889-2.248-5.132 0.323-2.254 1.607-3.849 3.855-4.496 4.496-1.289 9.31-1.93 13.8-2.889 4.496 0.635 8.668 1.283 12.518 2.248 3.208 0.965 4.496 3.531 3.849 6.745-0.636 2.566-3.525 4.485-6.415 3.843z" />
<glyph unicode="&#xe988;" glyph-name="ScootersAndHoverboards" d="M350.161 178.732c-10.181 0-17.655-8.145-17.655-17.655v-91.678c0-10.181 8.151-17.655 17.655-17.655 10.181 0 17.655 8.151 17.655 17.655v91.678c0 10.187-8.151 17.655-17.655 17.655zM164.781 178.732c-9.505 0-17.655-7.468-17.655-17.655v-91.678c0-9.505 7.468-17.655 17.655-17.655 9.505 0 17.655 7.474 17.655 17.655v91.678c0 9.51-7.468 17.655-17.655 17.655zM299.909 398.063c-4.749-0.677-24.44-1.353-29.873-0.677l-2.036-12.224c3.39 1.353 22.404 0 27.837-0.683 5.432-0.677 25.806-2.036 32.591 0.683 2.719 4.073 2.042 10.864 0.677 12.9-6.779 1.359-23.758 0.677-29.196 0zM210.279 384.48c5.432 0.683 24.447 2.036 27.837 0.683l-2.036 12.223c-5.432-0.677-24.447 0-29.879 0.677-5.432 0.683-22.41 1.36-29.196 0-1.359-2.036-2.036-8.827 0.677-12.9 6.792-2.719 27.166-1.36 32.597-0.683zM269.353 120.334c0-9-7.296-16.296-16.296-16.296s-16.296 7.296-16.296 16.296c0 9 7.296 16.296 16.296 16.296s16.296-7.296 16.296-16.296zM242.87 384.48c1.359-0.677 3.395 0 3.395 0v-145.314h13.583v145.314c0 0 2.036-0.677 3.39 0 0 0 2.042 8.827 2.719 14.26-0.029 0.017-0.065 0.041-0.089 0.059 0.024 0.2 0.065 0.423 0.089 0.618-2.042 0.683-5.432 3.396-12.9 3.396s-10.864-2.713-12.9-3.396c0.024-0.2 0.065-0.43 0.094-0.642-0.030-0.006-0.065-0.029-0.094-0.035 0.677-5.432 2.713-14.26 2.713-14.26zM253.058 99.966c-11.541 0-21.051 9.505-21.051 21.045h-45.492v-35.987h141.242v35.987h-53.642c-0.006-11.541-9.516-21.045-21.056-21.045zM262.562 140.020v93.714h-19.008v-93.714c2.713 1.353 6.108 2.036 9.505 2.036s6.792-0.677 9.504-2.036z" />
<glyph unicode="&#xe989;" glyph-name="Shoes" d="M378.568 363.692c0 0 51.041-31.099 51.041-76.365 0-45.612-12.5-22.115-25.694-85.35-12.847-63.235-14.236-100.899-14.236-112.302h-11.111l-2.084 125.779c0 0-40.625-9.675-56.25-58.743s-41.666-80.858-53.819-81.894c-11.805-1.382-150.693 10.366-150.693 45.612 0 9.329 9.375 15.895 54.513 27.298 0 0 24.305 5.183 33.333 19.351l43.055-15.895c0 0 30.555 27.989 44.097 70.837 13.541 42.502 31.597 54.942 54.166 85.004 22.222 30.063 33.68 56.669 33.68 56.669v0zM168.501 155.674c5.555 1.036 22.222 6.565 28.125 15.895l3.472 5.529 6.25-2.419 38.194-13.822c4.861 5.183 13.889 15.55 22.916 29.717 2.43 6.22 5.209 11.403 8.333 15.895 2.777 5.529 5.209 11.748 6.945 17.969 10.764 33.173 23.958 49.067 39.236 67.381 5.209 6.22 10.416 12.785 15.972 20.041s10.416 14.167 14.583 20.733c-13.541 22.115-35.764 35.591-35.764 35.591s-10.070-23.842-30.208-50.45c-20.139-26.607-36.111-38.010-48.263-76.020-11.805-38.010-39.236-62.889-39.236-62.889l-38.541 14.168c-7.986-12.785-29.513-17.277-29.513-17.277-40.278-10.366-48.611-15.895-48.611-24.188 0-9.675 10.764-16.932 26.736-22.806 5.209 11.403 23.611 17.969 59.374 26.952v0zM328.221 154.292c-3.472-10.366-7.291-20.041-11.458-29.026v-1.382h10.070c0 5.183 0.347 15.895 1.736 32.135 0-0.691-0.347-1.036-0.347-1.728v0z" />
<glyph unicode="&#xe98a;" glyph-name="Watches" d="M314.033 234.499h-10.993v-25.835h10.993c0.841 0 1.406 0.565 1.406 1.401v23.028c0.006 0.841-0.565 1.406-1.406 1.406zM255.429 258.81l-12.665-28.978c-0.288 0.041-0.589 0.065-0.883 0.065-2.954 0-5.467-1.93-6.333-4.59l-17.285 0.612-0.13-3.62 17.291-0.612c0.712-2.889 3.331-5.043 6.456-5.043 3.673 0 6.656 2.972 6.656 6.627 0 2.060-0.947 3.907-2.436 5.12l12.665 28.972-3.337 1.447zM297.684 292.903h-106.826c-1.412 0-2.536-1.124-2.536-2.524v-137.016c0-1.406 1.124-2.531 2.536-2.531h106.826c1.406 0 2.536 1.118 2.536 2.531v137.010c0 1.406-1.13 2.531-2.536 2.531zM267.805 288.406c2.183 0 3.949-1.76 3.949-3.931s-1.765-3.931-3.949-3.931c-2.178 0-3.943 1.76-3.943 3.931 0 2.178 1.765 3.931 3.943 3.931zM283.313 170.481c0-1.401-1.124-2.531-2.543-2.531h-72.999c-1.406 0-2.536 1.124-2.536 2.531v102.483c0 1.406 1.13 2.524 2.536 2.524h72.722c1.401 0 2.531-1.118 2.531-2.524v-102.483h0.288zM255.97 288.406c2.177 0 3.943-1.76 3.943-3.931s-1.765-3.931-3.943-3.931-3.943 1.76-3.943 3.931c-0.006 2.178 1.766 3.931 3.943 3.931zM244.13 288.406c2.184 0 3.949-1.76 3.949-3.931s-1.766-3.931-3.949-3.931c-2.178 0-3.943 1.76-3.943 3.931 0 2.178 1.766 3.931 3.943 3.931zM232.295 288.406c2.178 0 3.943-1.76 3.943-3.931s-1.766-3.931-3.943-3.931c-2.184 0-3.949 1.76-3.949 3.931 0 2.178 1.766 3.931 3.949 3.931zM220.454 288.406c2.178 0 3.943-1.76 3.943-3.931s-1.766-3.931-3.943-3.931c-2.184 0-3.943 1.76-3.943 3.931 0 2.178 1.76 3.931 3.943 3.931zM208.613 288.406c2.184 0 3.943-1.76 3.943-3.931s-1.766-3.931-3.943-3.931c-2.178 0-3.943 1.76-3.943 3.931 0 2.178 1.766 3.931 3.943 3.931zM196.779 155.322c-2.184 0-3.949 1.76-3.949 3.931s1.766 3.931 3.949 3.931c2.178 0 3.943-1.76 3.943-3.931s-1.766-3.931-3.943-3.931zM196.779 167.674c-2.184 0-3.949 1.765-3.949 3.931 0 2.171 1.766 3.931 3.949 3.931 2.178 0 3.943-1.76 3.943-3.931 0-2.166-1.766-3.931-3.943-3.931zM196.779 180.31c-2.184 0-3.949 1.76-3.949 3.931s1.766 3.931 3.949 3.931c2.178 0 3.943-1.76 3.943-3.931s-1.766-3.931-3.943-3.931zM196.779 192.945c-2.184 0-3.949 1.76-3.949 3.931s1.766 3.931 3.949 3.931c2.178 0 3.943-1.76 3.943-3.931s-1.766-3.931-3.943-3.931zM196.779 205.298c-2.184 0-3.949 1.76-3.949 3.931s1.766 3.931 3.949 3.931c2.178 0 3.943-1.76 3.943-3.931s-1.766-3.931-3.943-3.931zM196.779 217.933c-2.184 0-3.949 1.76-3.949 3.931s1.766 3.931 3.949 3.931c2.178 0 3.943-1.76 3.943-3.931s-1.766-3.931-3.943-3.931zM196.779 230.285c-2.184 0-3.949 1.76-3.949 3.931s1.766 3.931 3.949 3.931c2.178 0 3.943-1.76 3.943-3.931s-1.766-3.931-3.943-3.931zM196.779 242.921c-2.184 0-3.949 1.76-3.949 3.931s1.766 3.931 3.949 3.931c2.178 0 3.943-1.76 3.943-3.931s-1.766-3.931-3.943-3.931zM196.779 255.555c-2.184 0-3.949 1.76-3.949 3.931s1.766 3.931 3.949 3.931c2.178 0 3.943-1.76 3.943-3.931s-1.766-3.931-3.943-3.931zM196.779 267.909c-2.184 0-3.949 1.76-3.949 3.931s1.766 3.931 3.949 3.931c2.178 0 3.943-1.76 3.943-3.931s-1.766-3.931-3.943-3.931zM196.779 280.543c-2.184 0-3.949 1.76-3.949 3.931s1.766 3.931 3.949 3.931c2.178 0 3.943-1.76 3.943-3.931 0-2.166-1.766-3.931-3.943-3.931zM208.613 155.322c-2.178 0-3.943 1.76-3.943 3.931s1.766 3.931 3.943 3.931c2.184 0 3.943-1.76 3.943-3.931s-1.76-3.931-3.943-3.931zM220.454 155.322c-2.184 0-3.943 1.76-3.943 3.931s1.766 3.931 3.943 3.931c2.178 0 3.943-1.76 3.943-3.931s-1.766-3.931-3.943-3.931zM232.295 155.322c-2.184 0-3.949 1.76-3.949 3.931s1.766 3.931 3.949 3.931c2.178 0 3.943-1.76 3.943-3.931s-1.766-3.931-3.943-3.931zM244.13 155.322c-2.178 0-3.943 1.76-3.943 3.931s1.766 3.931 3.943 3.931c2.184 0 3.949-1.76 3.949-3.931s-1.766-3.931-3.949-3.931zM255.97 155.322c-2.178 0-3.943 1.76-3.943 3.931s1.766 3.931 3.943 3.931 3.943-1.76 3.943-3.931-1.765-3.931-3.943-3.931zM267.805 155.322c-2.178 0-3.943 1.76-3.943 3.931s1.765 3.931 3.943 3.931c2.183 0 3.949-1.76 3.949-3.931s-1.765-3.931-3.949-3.931zM279.646 155.322c-2.178 0-3.943 1.76-3.943 3.931s1.765 3.931 3.943 3.931c2.183 0 3.949-1.76 3.949-3.931s-1.765-3.931-3.949-3.931zM279.646 280.543c-2.178 0-3.943 1.76-3.943 3.931s1.765 3.931 3.943 3.931c2.183 0 3.949-1.76 3.949-3.931-0.006-2.166-1.765-3.931-3.949-3.931zM291.481 155.322c-2.178 0-3.943 1.76-3.943 3.931s1.765 3.931 3.943 3.931c2.183 0 3.943-1.76 3.943-3.931s-1.76-3.931-3.943-3.931zM291.481 167.674c-2.178 0-3.943 1.765-3.943 3.931 0 2.171 1.765 3.931 3.943 3.931 2.183 0 3.943-1.76 3.943-3.931 0-2.166-1.76-3.931-3.943-3.931zM291.481 180.31c-2.178 0-3.943 1.76-3.943 3.931s1.765 3.931 3.943 3.931c2.183 0 3.943-1.76 3.943-3.931s-1.76-3.931-3.943-3.931zM291.481 192.945c-2.178 0-3.943 1.76-3.943 3.931s1.765 3.931 3.943 3.931c2.183 0 3.943-1.76 3.943-3.931s-1.76-3.931-3.943-3.931zM291.481 205.298c-2.178 0-3.943 1.76-3.943 3.931s1.765 3.931 3.943 3.931c2.183 0 3.943-1.76 3.943-3.931s-1.76-3.931-3.943-3.931zM291.481 217.933c-2.178 0-3.943 1.76-3.943 3.931s1.765 3.931 3.943 3.931c2.183 0 3.943-1.76 3.943-3.931s-1.76-3.931-3.943-3.931zM291.481 230.285c-2.178 0-3.943 1.76-3.943 3.931s1.765 3.931 3.943 3.931c2.183 0 3.943-1.76 3.943-3.931s-1.76-3.931-3.943-3.931zM291.481 242.921c-2.178 0-3.943 1.76-3.943 3.931s1.765 3.931 3.943 3.931c2.183 0 3.943-1.76 3.943-3.931s-1.76-3.931-3.943-3.931zM291.481 255.555c-2.178 0-3.943 1.76-3.943 3.931s1.765 3.931 3.943 3.931c2.183 0 3.943-1.76 3.943-3.931s-1.76-3.931-3.943-3.931zM291.481 267.909c-2.178 0-3.943 1.76-3.943 3.931s1.765 3.931 3.943 3.931c2.183 0 3.943-1.76 3.943-3.931s-1.76-3.931-3.943-3.931zM291.481 280.543c-2.178 0-3.943 1.76-3.943 3.931s1.765 3.931 3.943 3.931c2.183 0 3.943-1.76 3.943-3.931 0-2.166-1.76-3.931-3.943-3.931zM208.896 297.416h16.631c0.712 0 1.383 0.671 1.383 1.377v29.202c0 0.712-0.671 1.383-1.383 1.383h-16.631c-0.712 0-1.389-0.671-1.389-1.383v-29.202c0-0.706 0.677-1.377 1.389-1.377zM208.896 332.509h16.631c0.712 0 1.383 0.671 1.383 1.383v28.077c0 0.712-0.671 1.383-1.383 1.383h-16.631c-0.712 0-1.389-0.671-1.389-1.383v-28.077c0-0.706 0.677-1.383 1.389-1.383zM208.896 366.483h16.631c0.712 0 1.383 0.671 1.383 1.383v28.36c0 0.712-0.671 1.383-1.383 1.383h-16.631c-0.712 0-1.389-0.671-1.389-1.383v-28.36c0-0.706 0.677-1.383 1.389-1.383zM263.009 297.416h16.631c0.712 0 1.389 0.671 1.389 1.377v29.202c0 0.712-0.677 1.383-1.389 1.383h-16.631c-0.712 0-1.383-0.671-1.383-1.383v-29.202c0-0.706 0.671-1.377 1.383-1.377zM263.009 332.509h16.631c0.712 0 1.389 0.671 1.389 1.383v28.077c0 0.712-0.677 1.383-1.389 1.383h-16.631c-0.712 0-1.383-0.671-1.383-1.383v-28.077c0-0.706 0.671-1.383 1.383-1.383zM263.009 366.483h16.631c0.712 0 1.389 0.671 1.389 1.383v28.36c0 0.712-0.677 1.383-1.389 1.383h-16.631c-0.712 0-1.383-0.671-1.383-1.383v-28.36c0-0.706 0.671-1.383 1.383-1.383zM231.165 349.075h26.218c0.983 0 1.666 0.683 1.666 1.666v29.478c0 0.983-0.688 1.666-1.666 1.666h-26.218c-0.983 0-1.666-0.683-1.666-1.666v-29.478c0-0.977 0.683-1.666 1.666-1.666zM231.165 297.134h26.218c0.983 0 1.666 0.683 1.666 1.659v10.669c0 0.983-0.688 1.666-1.666 1.666h-26.218c-0.983 0-1.666-0.683-1.666-1.666v-10.669c0-0.977 0.683-1.659 1.666-1.659zM231.165 384.456h26.218c0.983 0 1.666 0.683 1.666 1.659v9.552c0 0.977-0.688 1.659-1.666 1.659h-26.218c-0.983 0-1.666-0.683-1.666-1.659v-9.552c0-0.977 0.683-1.659 1.666-1.659zM231.165 313.982h26.218c0.983 0 1.666 0.683 1.666 1.666v28.642c0 0.977-0.688 1.66-1.666 1.66h-26.218c-0.983 0-1.666-0.683-1.666-1.66v-28.642c0-0.983 0.683-1.666 1.666-1.666zM225.527 146.312h-16.631c-0.712 0-1.389-0.665-1.389-1.377v-29.202c0-0.706 0.677-1.383 1.389-1.383h16.631c0.712 0 1.383 0.677 1.383 1.383v29.202c0.006 0.712-0.671 1.377-1.383 1.377zM225.527 111.219h-16.631c-0.712 0-1.389-0.677-1.389-1.383v-28.36c0-0.706 0.677-1.377 1.389-1.377h16.631c0.712 0 1.383 0.671 1.383 1.377v28.36c0.006 0.706-0.671 1.383-1.383 1.383zM225.527 76.962h-16.631c-0.712 0-1.389-0.671-1.389-1.383v-28.354c0-0.712 0.677-1.377 1.389-1.377h16.631c0.712 0 1.383 0.665 1.383 1.377v28.354c0.006 0.706-0.671 1.383-1.383 1.383zM279.646 146.312h-16.631c-0.712 0-1.383-0.665-1.383-1.377v-29.202c0-0.706 0.671-1.383 1.383-1.383h16.631c0.712 0 1.389 0.677 1.389 1.383v29.202c0 0.712-0.677 1.377-1.389 1.377zM279.646 111.219h-16.631c-0.712 0-1.383-0.677-1.383-1.383v-28.36c0-0.706 0.671-1.377 1.383-1.377h16.631c0.712 0 1.389 0.671 1.389 1.377v28.36c0 0.706-0.677 1.383-1.389 1.383zM279.646 76.962h-16.631c-0.712 0-1.383-0.671-1.383-1.383v-28.354c0-0.712 0.671-1.377 1.383-1.377h16.631c0.712 0 1.389 0.665 1.389 1.377v28.354c0 0.706-0.677 1.383-1.389 1.383zM257.377 94.652h-26.212c-0.983 0-1.666-0.683-1.666-1.659v-29.484c0-0.977 0.683-1.666 1.666-1.666h26.218c0.983 0 1.666 0.688 1.666 1.666v29.484c0 0.971-0.688 1.659-1.671 1.659zM257.377 146.312h-26.212c-0.983 0-1.666-0.677-1.666-1.659v-10.669c0-0.977 0.683-1.659 1.666-1.659h26.218c0.983 0 1.666 0.683 1.666 1.659v10.669c0 0.983-0.688 1.659-1.671 1.659zM257.377 58.989h-26.212c-0.983 0-1.666-0.677-1.666-1.659v-9.546c0-0.977 0.683-1.666 1.666-1.666h26.218c0.983 0 1.666 0.688 1.666 1.666v9.546c0 0.983-0.688 1.659-1.671 1.659zM257.377 129.469h-26.212c-0.983 0-1.666-0.683-1.666-1.659v-28.642c0-0.977 0.683-1.659 1.666-1.659h26.218c0.983 0 1.666 0.683 1.666 1.659v28.642c0 0.971-0.688 1.659-1.671 1.659z" />
<glyph unicode="&#xe98b;" glyph-name="CarRepair" d="M197.97 304.289c20.178 25.537 17.97 59.586-5.044 82.916-3.784 3.784-8.512 6.936-12.926 10.404-0.315-0.315-0.631-0.315-0.946-0.63v-47.291c0-1.892-0.631-3.153-2.522-4.414-9.143-5.044-17.97-10.089-27.113-15.448-1.892-0.946-3.153-0.946-5.044 0-8.827 5.044-17.655 10.404-26.798 15.133-2.207 1.261-2.838 2.522-2.838 4.729v47.921c-12.926-7.567-22.069-17.655-27.428-30.897-12.296-30.266-0.946-62.108 27.428-78.502 2.207-1.261 3.153-2.522 3.153-5.045v-203.035c0-10.719 3.153-20.178 12.611-26.483 4.414-2.837 9.774-4.099 14.502-5.99h6.936c4.729 1.892 10.089 3.152 14.502 5.99 9.143 6.305 12.611 15.764 12.611 26.483 0 67.784 0 135.882-0.315 203.665 0 2.838 0.946 4.414 3.153 5.99 5.675 4.414 11.665 8.828 16.079 14.503zM146.265 60.9c-6.305 0.315-11.35 5.36-11.35 11.665 0.315 6.305 5.99 11.35 12.296 11.034s11.35-5.675 11.035-11.981c-0.315-5.99-5.359-10.719-11.981-10.719zM431.901 255.107c-0.315 6.306-2.837 8.828-9.143 10.089-1.577 0.315-3.152 0.63-4.729 0.63-13.556-0.315-26.483-3.784-39.409-8.197-0.946-0.315-1.577-1.892-1.892-3.153-0.946-7.882-1.892-16.079-2.837-23.96-0.315-0.315-0.63-0.315-1.261-0.631-0.946 1.577-2.207 2.838-2.837 4.729-0.946 1.892-0.946 4.099-1.577 6.305-4.414 18.601-8.197 37.517-13.241 55.803-5.99 21.439-23.33 36.256-46.345 37.517-27.744 1.261-55.803 0.63-83.547 0.63-0.631 0-1.892-0.63-2.207-1.261-0.631-2.522-1.261-5.044-1.892-8.197h86.699c17.024-0.63 30.897-10.719 35.625-26.798 4.414-14.502 7.567-29.005 11.35-43.507 1.261-5.044 2.522-9.774 3.784-15.133h-167.094v-55.172h101.832v-12.296h-101.832v-3.468h100.572v-12.296h-100.256c0-0.63-0.315-1.577-0.315-2.207v-40.985c0-0.63 0-1.577 0.315-2.522h108.768c0-1.261 0.315-2.522 0.315-3.468v-23.961c0-6.305 2.522-11.665 7.567-15.133 14.502-10.089 29.95-10.404 45.714-3.152 8.827 4.099 13.557 10.719 12.926 20.808-0.315 8.197 0 16.079-0.315 24.276 0 3.152 0.946 4.414 3.784 5.675 13.241 6.305 22.384 16.079 22.7 31.527 0.315 17.655 0 34.995 0 52.65 0 7.882-3.152 14.502-8.197 20.493-2.207 2.522-4.414 5.044-6.305 7.566 0.946 0 2.522 0.315 4.099 0.315 15.133 0.631 30.266 1.577 45.084 2.207 3.152 0 4.099 1.261 4.099 4.099 0.315 6.62 0.315 13.242 0 20.178zM368.846 158.003h-59.586v27.428h59.586v-27.428zM191.664 169.353v0c0 0-0.315 0 0 0v0zM191.349 157.058v0 0 0z" />
<glyph unicode="&#xe98c;" glyph-name="Catering" d="M395.596 314.050c0 47.775-20.712 86.502-46.338 86.502-25.276 0-45.987-38.727-45.987-86.502 0-42.708 16.85-78.177 38.615-85.054l-2.106-180.242c0-5.429 4.212-10.134 9.478-10.134 5.616 0 9.829 4.705 9.829 10.134l-1.404 180.603c21.414 7.238 37.913 42.346 37.913 84.692v0zM161.799 319.841v80.711h6.319v-49.223c-2.809-10.134-4.915-20.992-6.319-31.488v0zM149.161 254.694l2.107-205.939c0-5.429-4.564-10.134-9.829-10.134-5.617 0-9.829 4.705-9.829 10.134l2.107 205.939c-10.882 3.258-18.957 13.754-18.957 26.059v119.799h6.319v-87.588c0-2.534 2.106-4.705 4.564-4.705s4.563 2.171 4.563 4.705v87.588h6.319v-87.588c0-2.534 2.107-4.705 4.915-4.705 2.458 0 4.564 2.171 4.564 4.705v87.588h6.319v-87.588c0-2.534 2.107-4.705 4.564-4.705 1.755 0 3.16 0.724 3.862 2.171v-6.877c0-9.41 2.458-18.82 6.67-27.507-1.755-10.134-8.776-18.096-18.255-21.354v0zM302.568 357.844c-3.861-13.030-5.968-27.868-5.968-43.793 0-15.201 2.106-30.041 5.968-43.070-14.393-12.305-33.7-20.992-47.743-20.992-23.871 0-65.645 26.421-65.645 53.566 0 7.238 1.053 14.839 2.458 23.163 32.297 2.534 75.124 10.496 110.93 31.126v0zM321.174 45.498c-4.563-4.343-36.86-6.877-65.996-6.877 0 0 0 0-0.351 0v0c-22.116 0-61.433 2.534-65.996 6.877-4.564 4.705 25.626-0.362 40.019 7.601s20.712 12.668 20.712 60.442c0 44.156 2.809 96.998-37.913 127.399-3.16 2.172-6.319 3.981-9.478 6.515-0.702 0.362-1.053 0.362-1.404 0.724 0 0 0.351 0 0.702-0.362-19.308 13.754-34.052 33.66-34.052 55.737 0 41.26 25.275 96.998 25.275 96.998h124.622c0 0 1.404-2.534 3.51-7.601-3.159-3.257-5.968-7.238-8.776-11.943-1.053 2.534-1.755 5.067-2.808 6.877h-108.474c-6.67-15.925-21.063-54.652-21.063-84.33 0-33.659 47.040-62.976 75.124-62.976h0.351c14.744 0 35.105 8.325 50.55 20.992 1.755-4.343 3.51-8.324 5.265-11.943-0.702-0.362-1.404-1.086-2.457-1.81 0.351 0.362 0.702 0.362 0.702 0.362-0.351-0.362-0.702-0.362-1.053-0.724-3.51-2.534-6.67-4.705-9.829-6.515-40.721-30.402-37.913-83.244-37.913-127.4 0-47.775 6.319-52.48 20.712-60.442s44.583-2.896 40.019-7.601v0z" />
<glyph unicode="&#xe98d;" glyph-name="ComputerAndInternet" d="M304.844 303.054h-97.082c-6.11-23.422-9.844-47.522-10.863-71.623h118.467c-0.679 24.101-4.413 48.202-10.523 71.623v0zM204.707 146.569h102.853c4.413 20.027 7.128 40.394 7.808 61.101 0.339 3.734 0.339 7.128 0.339 10.523h-118.806c0-24.101 2.715-48.202 7.808-71.623v0zM261.733 391.31c-92.669 3.055-169.045-68.568-172.1-160.898-1.358-44.467 14.257-86.899 44.807-119.486 30.211-32.587 71.624-51.257 116.091-52.615 2.036-0.339 3.734-0.339 5.771-0.339 90.293 0 163.274 70.945 166.329 161.238 3.394 91.651-68.908 169.045-160.898 172.1v0zM388.687 146.569c-2.716-4.413-5.431-8.825-8.486-12.899h-62.119c-5.091-19.688-11.88-38.358-20.367-57.027-5.431-1.358-10.863-2.376-16.293-3.394 9.844 19.349 17.312 39.716 23.082 60.421h-96.403c5.431-20.707 13.238-41.073 22.743-60.421-5.431 1.019-10.863 2.036-15.954 3.394-8.486 18.33-15.275 37.339-20.367 57.027h-62.119c-3.055 4.074-5.77 8.486-8.486 12.899h67.55c-5.091 23.422-7.468 47.522-7.468 71.623h-81.128c-0.34 4.074-0.34 7.808-0.34 11.881 0 0.339 0 0.679 0.34 1.358h81.128c1.018 24.101 4.413 48.202 10.523 71.624h-70.945c2.716 4.413 5.77 8.825 8.826 12.899h65.513c6.11 20.367 13.917 39.715 23.422 58.724 5.431 1.019 10.863 2.037 16.293 2.716-10.863-19.688-19.349-40.055-26.137-61.44h89.614c-6.789 21.385-15.615 41.752-26.137 61.44 5.431-0.679 10.863-1.697 15.954-3.055 9.844-18.67 17.651-38.358 23.762-58.385h65.174c3.055-4.074 5.771-8.486 8.486-12.899h-70.265c6.11-23.422 9.505-47.523 10.523-71.624h81.128c0-4.073 0.339-7.807 0-11.881v-1.358h-81.128v-10.863c-0.679-20.707-3.394-40.733-7.808-60.761h67.889z" />
<glyph unicode="&#xe98e;" glyph-name="ConstructionServices" d="M127.088 56.644v0c-20.127 0.737-38.577 11.428-48.64 28.752v0c-5.218 9.031-7.827 18.984-7.827 28.752v0c0 9.953 2.609 19.906 7.827 28.752v0l128.216 219.7c10.436 17.879 29.631 28.752 50.317 28.752v0c20.873 0 40.067-11.058 50.317-28.752v0l128.216-219.516c5.218-8.847 7.827-18.8 7.827-28.752v0c0-9.953-2.609-19.906-7.827-28.752v0c-10.436-17.878-29.632-28.752-50.504-28.752v0l-257.923-0.185zM99.693 130.923c-2.982-5.161-4.472-10.875-4.472-16.588v0c0-5.714 1.491-11.428 4.472-16.588v0c5.963-10.322 17.145-16.588 29.072-16.588v0 0 0 0 0h256.245c12.113 0 23.108 6.267 29.072 16.588v0c2.982 5.161 4.473 10.875 4.473 16.588v0c0 5.714-1.491 11.428-4.473 16.588v0l-128.029 219.516c-5.964 10.322-17.145 16.588-29.072 16.588v0c-11.927 0-23.108-6.267-29.072-16.588v0 0l-128.216-219.516zM282.326 231.373c11.555 0 20.873 9.215 20.873 20.643s-9.318 20.643-20.873 20.643c-11.555 0-20.873-9.216-20.873-20.643s9.318-20.643 20.873-20.643v0zM259.217 102.354c0 0-13.418 4.608-17.332-3.87l122.066 0.737c0 0-19.754 28.752-36.154 26.541 0 0-9.318 21.933-33.172 6.82l-35.036 29.305c0.187 0.368 0.373 0.553 0.559 0.921l13.977 47.184c1.305 4.239-0.932 8.663-4.846 10.506l-19.195 21.38c-0.745 0.922-2.050 0.922-2.982 0.369l-46.776-31.333-19.381 16.22c-1.863 1.659-4.659 1.29-6.336-0.553s-1.304-4.608 0.559-6.266l17.332-14.377c-0.186-0.185-0.186-0.368-0.373-0.553-0.373-0.368-0.559-0.737-0.559-1.106 0-0.185-0.745-0.368-0.745-0.553s-0.932-0.185-0.932-0.368v0l-9.505-61.007-16.399-34.651c-2.237-4.423 0-9.769 4.472-11.796 1.304-0.553 2.609-0.921 3.913-0.921 3.355 0 6.709 1.843 8.2 4.976l17.332 35.757 0.745 2.396 7.827 46.262 10.25-12.533 7.641-24.514-18.263-38.89c-2.050-4.423-0.186-9.769 4.472-11.796 1.304-0.553 2.423-0.737 3.727-0.737 3.355 0 6.709 1.843 8.2 5.161l19.754 41.839c0.932 2.027 1.118 4.239 0.373 6.267l-6.15 20.090 5.964-4.976c0.373-3.502 2.796-6.635 6.523-7.741 0.932-0.185 1.677-0.368 2.609-0.368h0.559l35.035-29.122c-3.727-0.553-24.973-5.529-27.954-24.698v0zM234.431 182.529l16.586 13.455-6.523-21.933-10.064 8.478z" />
<glyph unicode="&#xe98f;" glyph-name="ElectircServices" d="M210.835 221.863l-9.694 9.753 21.901 21.596c-35.903 39.709-28.005 53.642-28.005 53.642l73.601 71.754 22.26-21.944 45.238 43.889 18.67-18.113-45.238-43.889 30.517-29.608 45.238 43.889 18.67-18.461-45.238-43.889 22.619-21.596-73.601-71.754c0 0-14.361-8.012-55.291 27.169l-21.901-21.596-19.746 19.158zM248.174 139.311c-3.95 3.832-10.412 3.832-14.361 0l-55.291-53.99c-11.489-11.495-30.518-11.495-42.006 0-11.489 11.147-11.489 29.608 0 40.753l79.346 77.327-14.361 13.584-78.987-76.979c-19.388-18.81-19.388-49.81 0-68.62 19.387-19.158 50.982-19.158 70.37 0l55.291 53.99c3.95 3.832 3.95 10.101 0 13.933v0z" />
<glyph unicode="&#xe990;" glyph-name="FurnitureMoving" d="M441.662 110.149h-89.724v239.707c0 4.842-3.495 8.878-8.156 8.878-4.272 0-8.156-4.036-8.156-8.878v-211.862l-25.247 86.359-45.056 144.066c-0.777 3.632-4.272 5.65-7.769 5.65h-93.608c-3.495 0-6.603-2.017-7.768-5.65l-45.056-144.066h-41.172c-4.661 0-8.157-4.036-8.157-8.474v-110.572c0-2.017 0.389-4.036 1.553-5.246v1.211c0 23.81 18.644 43.18 41.172 43.18 22.916 0 41.56-19.37 41.56-43.18 0-1.614-0.388-3.228-0.388-4.842h99.434c0 1.614-0.388 3.228-0.388 4.842 0 23.81 18.644 43.18 41.172 43.18 22.916 0 41.56-19.37 41.56-43.18 0-1.614-0.389-3.228-0.389-4.439 4.272 0 7.38 3.632 7.38 8.071l1.165 0.404v-3.632c0-4.842 3.884-8.878 8.156-8.878h97.88c4.661 0 8.156 4.036 8.156 8.878 0.389 4.439-3.495 8.474-8.156 8.474v0zM256.777 224.353h-128.177l41.172 132.767h81.956l35.345-112.993-30.296-19.774zM137.922 101.272c0-19.37-14.76-34.705-33.404-34.705-18.255 0-33.015 15.335-33.015 34.705 0 18.966 14.76 34.705 33.015 34.705 18.644 0 33.404-15.738 33.404-34.705v0zM285.908 135.976c-18.255 0-33.015-15.738-33.015-34.705 0-19.37 14.76-34.705 33.015-34.705 18.644 0 33.404 15.335 33.404 34.705 0 18.966-14.76 34.705-33.404 34.705v0zM359.707 237.267h83.509v-119.853h-83.509v119.853z" />
<glyph unicode="&#xe991;" glyph-name="HousekeepingServices" d="M294.912 315.913c24.823 5.702 40.589 8.051 40.589 8.051v48.64c0 0-17.779 5.031-40.589 9.728v-66.419zM148.321 247.817c0-13.754-5.031-38.241-12.076-65.413h93.255c-6.709 27.171-12.076 51.659-12.076 65.412 0 53.001 57.697 64.071 65.412 65.412v71.45c-19.791 4.026-41.596 7.045-58.703 7.045h-41.26c-75.141 0-94.597-57.026-94.597-57.026v-22.475c0 0 60.045-7.715 60.045-64.406v0zM132.891 169.658c-14.424-54.342-34.215-113.382-34.215-113.382h168.395c0 0-19.456 59.039-34.215 113.382h-99.963zM423.389 380.99c0-6.038-4.697-10.735-10.399-10.735s-10.399 4.697-10.399 10.735c0 6.038 4.697 10.734 10.399 10.734s10.399-4.696 10.399-10.734v0zM409.635 298.47c0-6.038-4.697-11.070-10.399-11.070s-10.399 5.032-10.399 11.070c0 6.038 4.697 10.734 10.399 10.734s10.399-4.697 10.399-10.734v0zM384.476 339.059c0-6.038-4.697-10.734-10.399-10.734s-10.735 4.697-10.735 10.734c0 6.038 5.031 10.735 10.735 10.735s10.399-4.697 10.399-10.735v0zM230.171 254.19c-0.335-2.012-0.335-4.025-0.335-6.374 0-2.684 0-6.709 1.006-12.411l48.305-52.33c1.342-1.007 2.683-1.677 4.361-1.677s3.019 0.336 4.361 1.677c2.348 2.348 2.348 6.373 0 8.721l-57.697 62.394z" />
<glyph unicode="&#xe992;" glyph-name="LegalServices" d="M360.607 320.95l-131.972-132.202-71.062 71.22 131.973 131.757 71.062-70.775zM218.042 178.065l-11.035-10.683-71.062 71.22 10.593 10.683 71.504-71.22zM35.31 65.893h207.448v-15.134h-207.448v15.134zM58.703 96.161h160.662v-15.134h-160.662v15.134zM310.731 249.73l-10.593-10.683 165.517-165.586 11.034 10.683-165.958 165.587z" />
<glyph unicode="&#xe993;" glyph-name="MedicalServices" d="M202.625 336.711l56.606-100.847-24.26-13.718-18.746 31.885 12.13 6.673-2.573 4.82-12.498-7.045-3.308 5.932 12.498 6.673-2.573 4.82-12.865-7.045-3.675 6.673 12.865 7.045-2.573 4.82-13.232-7.044-3.308 5.561 13.232 7.415-2.573 4.82-13.6-7.415-3.308 5.562 13.6 7.415-2.573 4.82-13.6-7.786-4.043 6.673 13.968 7.786-2.573 4.82-13.968-7.786-5.881 9.639 26.833 14.83zM232.398 353.024l58.811-98.993-22.421-12.606-56.606 100.476 20.216 11.123zM377.587 46.777l-43.373 77.488c18.746 12.606 24.995 37.076 13.233 56.726l-105.125 177.594 1.47 0.742c2.573 1.483 3.675 4.82 2.206 7.415s-5.146 3.337-7.719 1.854l-31.244-17.055-17.275 30.773 29.773 16.313c2.573 1.483 3.675 4.82 2.206 7.415s-5.146 3.337-7.719 2.225l-69.471-38.188c-2.573-1.483-3.308-4.82-1.838-7.415 0.735-1.854 2.573-2.596 4.779-2.596 0.735 0 1.838 0 2.573 0.371l30.141 16.684 17.275-30.773-37.125-20.392c-2.94-1.483-3.675-4.82-2.206-7.415 1.102-1.854 2.941-2.966 4.779-2.966 1.102 0 1.838 0.371 2.573 0.741l0.735 0.371 105.86-178.335c7.719-13.348 22.054-21.504 37.86-21.504 4.779 0 9.557 1.113 14.335 2.596l43.373-77.859c1.103-1.854 2.94-2.966 5.146-2.966 0.735 0 1.471 0.371 2.573 0.741 2.573 1.483 3.675 4.82 2.205 7.415v0z" />
<glyph unicode="&#xe994;" glyph-name="TravelAndTourismServices" d="M248.82 257.464l-107.312-50.148-54.268 15.085-34.275-15.085 63.245-41.178-12.241-69.718 39.171 20.385 13.057 41.178 117.921 49.332 8.161-141.882 35.498 19.57 30.195 154.113c0 0 33.459 13.862 58.757 26.909 24.89 13.046 54.268 31.801 44.883 49.333-8.568 17.123-37.131 15.493-56.716 6.524-19.586-9.378-65.693-27.724-65.693-27.724l-142.81 79.911-28.154-15.493 90.583-101.111z" />
<glyph unicode="&#xe995;" glyph-name="TutoringAndCourses" d="M123.365 297.956h80.044v-126.137h-80.044v126.137zM61.793 372.5v-269.536h181.54l-0.993 16.282h-164.060v236.971h357.12v-237.168h-28.403l11.719-16.282h33.17v269.732zM408.982 142.59h-19.067l5.76-8.043h21.649v202.642h-320.971v-202.642h99.31l9.137 8.043h-100.303v186.36h304.486zM254.852 298.348h97.92v-12.358h-97.92v12.358zM218.306 266.765h171.012v-13.536h-171.012v13.536zM218.306 238.321h171.012v-13.536h-171.012v13.536zM350.389 166.522c0-20.205-16.486-36.488-36.943-36.488s-36.943 16.282-36.943 36.488c0 20.205 16.684 36.488 36.943 36.488 20.458 0 36.943-16.282 36.943-36.488v0 0zM313.445 111.596l29.991-37.468 14.3 37.076 39.724 5.101-29.991 37.468zM218.306 136.901l37.54-14.124 5.164-39.233 37.937 29.622-42.704 53.358z" />
<glyph unicode="&#xe996;" glyph-name="PetsAccessories" d="M206.452 76.259c-15.454-15.125-40.115-15.125-55.57 0-9.207 9.536-12.824 22.36-10.851 34.526-12.166-1.973-24.99 1.644-34.525 10.851-15.126 15.454-15.126 40.115 0 55.57 15.126 15.125 40.115 15.125 55.241 0l0.329-0.329 142.048 142.048c0 0 0 0-0.329 0.329-15.125 15.125-15.125 39.786 0 55.241 15.454 15.125 40.115 15.125 55.57 0 9.207-9.535 12.824-22.359 10.851-34.525 12.166 1.973 24.99-1.644 34.526-10.851 15.125-15.455 15.125-40.115 0-55.57-15.454-15.125-40.115-15.125-55.241 0l-0.329 0.329-142.048-142.048c0 0 0 0 0.329-0.329 15.125-15.125 15.125-39.786 0-55.241v0z" />
<glyph unicode="&#xe997;" glyph-name="Birds" d="M421.411 183.187c0 0-102.531 120.661-188.036 138.741-8.883 1.845-16.656 2.583-23.32 2.214-0.37 0-0.74 0.369-1.481 0.369 6.292 8.856 9.624 19.556 9.624 30.995 0 29.888-24.43 53.873-54.412 53.873-16.286 0-31.093-7.011-41.087-18.45l-34.424-4.428 22.209-19.925c-0.74-3.69-1.111-7.38-1.111-11.070 0-21.771 12.955-40.589 31.833-49.445-12.215-40.589 7.403-116.233 40.346-149.073 21.469-21.77 46.639-35.055 72.179-42.803v-38.007l-35.535-13.652 31.833 4.428-1.851-2.214 17.767 6.642-1.851 4.797v35.423c3.332-1.107 6.663-1.476 10.364-2.214v-40.22l-35.535-13.652 31.833 4.428-14.436-19.556 24.060 16.974 13.695-14.76-9.253 26.567v38.745c44.048-4.797 86.615 5.904 114.006 23.615 0 0-6.663 12.915-18.877 31.733 18.877 4.428 34.054 11.070 41.457 19.925v0zM170.449 367.314c-7.403 0-13.696 5.904-13.696 13.653 0 7.38 6.292 13.653 13.696 13.653 7.773 0 13.696-6.273 13.696-13.653 0-7.749-5.923-13.653-13.696-13.653v0z" />
<glyph unicode="&#xe998;" glyph-name="Camels" d="M431.55 284.571c-10.976 13.916-9.604 11.596-15.55 23.657-7.775 16.236-20.123 9.741-26.984 18.555-6.861 8.349-14.178 49.17-69.060 49.17s-63.572-63.086-112.052-63.086c-11.434 0-9.605-42.675-26.069-52.417s-42.991-0.928-42.991 34.79c0 35.717 13.72 46.85-3.659 79.321 0 0-1.829 12.988-10.519 15.308-8.233 1.856-33.844-12.988-37.96-12.988s-37.961 1.856-41.619-12.061c0 0-16.922-13.452-4.574-24.121 0 0 6.403-6.030 15.093-6.030s16.008 5.566 16.008 5.566c0 0 5.945-10.205 21.038-11.133 0 0-10.977-68.189 17.837-102.051 29.27-34.326 101.532-39.429 101.532-39.429s7.775-30.615 7.317-47.778c-0.915-17.163-3.202-11.596 1.372-20.874 0 0 0.458-34.79-2.744-43.139-3.202-7.885-25.612-10.205-25.612-27.368h41.162c0 0 3.202 12.524-3.659 17.163 0 0 0.458 51.953 4.573 65.405 4.573 13.452 11.434 11.133 7.775 26.44-3.659 15.772 12.349 34.326 12.349 34.326s37.503-19.483 68.145-3.247c30.642 16.236 60.828 32.935 74.091 25.512 0 0 0-36.181 18.294-46.387 18.294-10.669 38.875-32.007 38.875-46.851 0-14.38-14.635-49.17-21.953-55.664-6.861-6.494-13.721-4.639-13.721-16.699h44.363c0 0 3.659 9.741-5.488 13.916 0 0-0.914 18.091 5.945 37.11 6.403 19.019 16.007 16.236 6.403 30.151s-16.007 23.194-16.007 30.151c0 6.958 24.24 63.55-5.488 102.978-1.829 2.783-3.659 5.103-5.488 7.422 15.092-11.596 34.759-32.934 36.588-65.405 0-1.392 1.372-2.783 3.202-2.783v0c1.829 0 3.202 1.392 2.744 3.247-2.744 48.706-42.077 73.291-53.51 79.321v0z" />
<glyph unicode="&#xe999;" glyph-name="Cats" d="M302.322 122.659c-15.777 1.192-30.341 3.575-42.882 6.356 24.677 9.534 57.849 31.382 57.849 80.64 0 54.025-52.186 79.846-55.827 117.981 6.068 3.575 11.327 8.74 14.968 14.698l19.014-13.109h0.809c0 0 0.404 0 0.809 0.397 0 0.397 0 0.794-0.404 1.192l-19.014 13.109c1.214 1.986 2.428 4.369 3.236 6.356l42.072-9.931h0.404c0.404 0 0.809 0 0.809 0.794 0.404 0.397 0 0.794-0.809 0.794l-42.072 10.329c1.214 2.384 1.618 4.767 2.428 7.548l31.959 4.37c0.404 0 0.809 0.397 0.809 0.794 0 0.795-0.404 0.795-1.214 0.795l-31.555-3.973c0.404 2.384 0.809 4.767 0.809 7.151 0 4.767-0.809 9.534-2.022 13.904 11.732 14.3 9.305 32.574 9.305 32.574l-26.296-7.548c-8.9 6.356-19.418 10.329-31.554 10.329-11.732 0-22.655-3.973-31.15-10.329l-26.296 7.548c0 0-2.428-18.273 9.304-32.574-1.618-4.37-2.023-9.137-2.023-13.904 0-2.384 0-4.767 0.405-7.151l-31.554 3.973c-0.405 0.397-0.809 0-0.809-0.795-0.405-0.397 0-0.794 0.809-0.794l31.959-4.37c0.405-2.781 1.214-5.164 2.023-7.548l-42.072-10.329c-0.405 0-0.809-0.397-0.809-0.794 0.405-0.794 0.809-0.794 1.214-0.794v0l42.477 9.931c0.809-1.986 2.023-3.973 3.237-6.356l-19.013-13.109c-0.809-0.397-0.809-0.795-0.405-1.192 0-0.397 0.405-0.397 0.809-0.397h0.405l19.013 13.109c4.046-5.958 9.304-11.123 15.373-14.698-4.046-38.135-56.232-63.956-56.232-117.981 0-55.614 42.882-76.668 67.558-83.818 14.159-5.562 44.5-15.889 83.336-18.273 42.882-2.781 69.582-22.643 69.177-39.724-0.404-14.698-22.654-30.19-71.604-31.382-109.226-2.781-149.276 72.298-150.894 75.476-2.023 3.973-6.877 5.562-10.518 3.575-4.046-1.986-5.259-6.356-3.641-10.329 2.023-3.575 44.904-84.215 159.39-83.818h6.068c63.108 1.589 86.168 25.026 86.572 46.080 0.404 24.231-28.723 51.642-83.74 55.216v0zM274.004 388.811c0 0 2.022-27.807-33.173-22.643 0 0-2.428 26.218 33.173 22.643v0zM193.905 388.811c36.005 3.575 33.577-22.643 33.577-22.643-35.196-5.164-33.577 22.643-33.577 22.643v0z" />
<glyph unicode="&#xe99a;" glyph-name="Chickens" d="M399.123 393.637c0 0 7.503 13.865-0.417 18.907-7.921 4.622-33.349 19.747-36.268 12.605s10.422-12.185 10.422-12.185c0 0-47.524-15.546-57.111-52.94-9.171-37.814 4.586-47.057 10.839-39.494 0 0 7.503-10.924 15.424-4.622 0 0 10.422-7.983 17.509 1.681 0 0 7.503-8.823 14.591-2.101 0 0 12.506-6.723 18.343 4.621 0 0-11.673 20.168-12.506 31.932 0 0 20.426 2.521 10.839 27.31l17.091 0.841c0 0 2.501 10.504-8.755 13.445v0zM382.865 390.697c-3.335 0-5.836 2.521-5.836 5.882 0 2.941 2.501 5.462 5.836 5.462 2.918 0 5.42-2.521 5.42-5.462 0-3.361-2.501-5.882-5.42-5.882v0zM382.031 310.868c-2.918 0-5.836 0.84-7.503 1.261-2.084-1.261-4.168-2.101-6.253-2.101-3.752 0-6.67 1.68-8.755 3.361-2.501-2.101-5.42-3.361-8.755-3.361s-7.087 1.26-8.755 2.521c-1.668-0.841-3.335-1.68-5.42-1.68-4.586 0-8.337 3.361-10.422 5.462-1.25-0.84-2.501-1.261-4.168-1.261-2.918 0-5.42 1.681-7.503 4.202-0.417 0.841-0.834 1.681-1.668 2.521-2.084-9.663-6.67-19.747-15.424-25.209-19.176-11.344-43.772-13.025-50.858 19.327 0 0-4.585 76.888-70.868 76.888-66.7 0-85.042-62.183-72.535-89.913 0 0 11.255 39.914 32.516 45.797 0 0-22.511-21.428-17.091-43.276 0 0 9.171 23.109 25.012 28.99 0 0-20.844-25.209-6.67-50.418 0 0 3.335 19.747 15.007 28.151 0 0-13.34-28.151-3.335-44.957 0 0 0.833 11.344 12.089 19.747 0 0-8.755-27.73 12.089-42.435l-0.833-40.755c1.667-23.108 26.68-36.974 26.68-36.974s8.755-32.772 60.446-39.075c6.67-9.243 17.091-21.007 25.429-25.209v-45.797l-5.836 2.101c-10.839 3.781-18.759-6.303-18.759-6.303 6.253 5.042 17.509-0.42 17.509-0.42l-2.084-6.723c-7.921-12.604-6.67-33.192-6.67-33.192 0.834 8.403 16.675 25.209 16.675 25.209 10.839 0 37.935-22.688 37.935-22.688-2.084 13.025-20.010 21.848-20.010 21.848 3.752 0.841 25.429-7.563 25.429-7.563-1.25 5.042-14.591 15.125-24.596 17.226-7.921 1.68-10.422 5.042-10.839 6.303v49.158c7.921 3.781 14.173 19.327 17.091 28.99 1.25 0.42 2.501 0.841 3.335 0.841-1.668-5.882-4.586-14.285-8.755-21.007 2.918-2.521 5.42-4.622 7.921-5.882v-43.276l-5.42 2.101c-4.586 1.68-8.337 0.841-11.255-0.841v-2.941c5.002 0 10.005-2.521 10.005-2.521l-1.668-6.303c-0.417-0.42-0.834-0.841-0.834-1.68h1.25c5.002-1.26 11.255-4.202 16.675-7.983 11.673-5.462 27.93-19.327 27.93-19.327-2.084 12.185-18.759 20.587-18.759 20.587 3.335 0.841 23.762-7.142 23.762-7.142-0.834 4.622-13.757 14.285-22.928 16.386-7.503 1.26-10.005 4.622-10.422 5.882v46.637c9.171 3.781 17.509 28.57 20.426 38.654 37.519 19.747 55.861 52.94 61.28 82.35 6.253 34.873-6.253 73.527-12.089 88.653-2.501-2.101-5.42-2.941-8.755-2.941v0z" />
<glyph unicode="&#xe99b;" glyph-name="Dogs" d="M430.099 157.601c-3.737 9.678-5.605 34.065 2.615 50.324 8.221 16.645 11.584 43.743-10.837 67.356 0 0 6.353 10.065 2.99 25.936-3.363 16.259-26.157 37.937-32.51 31.743-5.979-6.581 11.957-12 13.826-29.807s-8.594-17.807-8.594-17.807c0 0-68.010 7.742-99.399-1.935-31.389-10.065-90.056 1.935-107.993 34.839-8.595 15.872-13.452 25.162-18.684 30.969 0 0 0 0.387 0 0 0 0 3.737 29.42-27.652 33.678 0 0 3.737-12.387 2.989-20.904-6.726 0.387-20.552 1.161-26.905-3.484-8.221-6.194-14.2-12.001-14.2-12.001s-11.21-1.935-22.047-4.645c-11.957-3.097-11.21-15.871-11.21-15.871 0.748-11.226-1.868-15.872 24.663-20.517 8.594-1.548 25.784-0.774 38.489-8.516 13.078-7.742 19.431-41.808 21.299-56.518 1.869-15.097 2.989-43.743 28.026-58.066 0 0-1.869-85.163-2.989-93.68-1.494-8.904-21.673-19.743-22.794-24s7.1-7.742 17.936-5.033c10.463 2.322 19.058 13.936 22.047 30.969s13.453 78.969 13.453 78.969c0 0 34.752-5.033 69.878 11.613 34.752 16.645 91.551 17.807 96.782 10.839 5.231-6.581 13.452-39.485 28.399-50.324 14.947-10.452 14.947-23.613 14.2-42.195-0.373-18.968-11.584-32.517-11.957-37.162s14.947-5.033 20.553 0.387c5.231 5.42 9.716 10.065 7.474 21.291-1.868 11.226-1.121 34.839 2.242 48.776s-6.726 15.484-10.089 24.775v0zM123.309 339.154c-2.99 0-5.605 2.709-5.605 6.193s2.615 6.194 5.605 6.194c3.363 0 5.979-2.709 5.979-6.194s-2.615-6.193-5.979-6.193v0z" />
<glyph unicode="&#xe99c;" glyph-name="Fish" d="M459.034 296.105c-46.080-7.716-82.626-43.856-100.105-64.565-12.315 15.43-33.368 35.734-66.736 48.322 4.767 13.401 13.109 28.019 13.109 28.019-57.6 22.74-118.378 3.655-118.378 3.655v-21.522c-19.465-2.437-36.149-6.497-50.847-11.37 11.52-27.613 23.437-72.687 9.137-119.385 4.767-1.625 10.328-2.842 15.889-4.060l7.945-32.892 14.3 14.618-8.342 15.43c14.698-2.437 31.382-3.654 50.053-3.654 56.409 0 97.721 20.709 122.351 37.358 44.491-60.505 107.255-64.971 107.255-64.971-54.025 66.596 4.37 175.016 4.37 175.016v0zM131.708 277.019c-50.053-18.679-69.915-48.322-69.915-48.322s10.725-45.886 78.654-68.219c14.3 45.886 2.383 89.741-8.739 116.542v0zM107.873 223.012c-7.945 0-14.3 6.497-14.3 14.619s6.356 14.619 14.3 14.619c7.945 0 14.3-6.497 14.3-14.619s-6.356-14.619-14.3-14.619v0z" />
<glyph unicode="&#xe99d;" glyph-name="Goats" d="M417.699 278.177c-2.455 4.448-5.32 8.896-9.413 12.94-25.375 22.646-58.935 31.543-88.401 27.094-29.877-4.448-50.34-4.448-64.664 6.066-13.915 10.11-32.742 2.831-48.702-4.044-15.962-6.471-50.34-11.323-66.301 4.853s-36.834 15.772-36.834 15.772c-1.228 32.351 36.016 24.668 36.016 24.668-39.29 27.499-59.753-24.264-59.753-24.264-18.008-0.405-19.645-46.506-19.645-46.506s-10.231-24.668-4.911-31.947c5.321-7.279 13.097-6.066 13.097-6.066 4.502-5.257-0.409-22.242-0.409-22.242 14.325 6.47 11.050 25.882 11.050 25.882l28.24 15.367c18.007-48.932 49.521-66.726 81.035-82.901 9.822-4.853 20.054-7.279 29.876-8.088v-1.618c-2.456-11.323 2.047-27.904 2.865-43.675 1.228-16.176-2.456-42.057-2.456-42.057-18.827-5.257-20.464-22.242-20.464-22.242h27.83c0 0 12.688 6.471 9.413 23.455-3.684 16.581 5.321 54.594 5.321 54.594l9.004 32.756c7.367 0.809 11.868 2.022 11.868 2.022 47.475-25.072 105.591-6.066 105.591-6.066s7.776-16.581 4.911-27.499c-2.455-10.918-34.378-61.873-34.378-61.873-11.050-3.235-11.459-17.389-11.459-17.389h27.012c0.818 6.875-0.818 12.536-0.818 12.536s12.278 11.323 28.649 36.8c15.962 25.072 18.007 17.389 15.962 31.543-2.455 14.154-7.776 19.411 8.185 44.079 11.868 18.198 21.691 46.505 15.552 69.556 18.007-2.022 20.054-10.11 20.054-10.11s-0.818-0.809-1.228-2.426c-1.228-23.455 16.78-25.882 16.78-25.882 2.865 40.44-25.375 46.505-38.471 46.91v0zM75.552 300.014c-2.456 0-4.502 2.022-4.502 4.448s2.046 4.449 4.502 4.449c2.456 0 4.502-2.022 4.502-4.449s-2.046-4.448-4.502-4.448v0z" />
<glyph unicode="&#xe99e;" glyph-name="Horses" d="M454.567 105.779c0 0 4.467 61.087-1.218 118.483-4.060 39.767-30.861 66.006-47.104 78.305-10.151 9.429-25.988 15.579-49.947 15.579-19.897 0-67.001-20.498-94.614-20.498s-60.505 36.897-85.274 57.806c-24.364 21.319-61.722 22.548-61.722 22.548s-2.843 16.399-12.182 22.549l-0.812-22.549c0 0-12.994-10.659-13.806-18.039-1.218-6.969-27.206-30.748-31.267-39.767-3.654-9.019 0-17.629 3.654-18.859 3.654-0.82 4.873-0.41 4.873-0.41s5.279-1.64 8.933-0.41c3.654 0.82 3.654 8.199 17.461 11.069s21.522-4.099 31.267 4.1c0 0 19.085-14.759 19.085-41.817 0-26.649-0.406-61.496 14.619-70.925 0 0 0.812-32.798 3.655-47.147s2.436-85.275 2.436-85.275c0 0-22.74-22.139-21.928-29.108h21.928c0 0 6.497 3.69 4.060 6.969l-2.843 3.28c0 0 9.339 9.839 10.964 12.709 2.030 2.46 0.812 50.837 2.030 60.267s4.060 51.247 8.121 59.036c4.060 7.789 10.558 5.329 10.558 5.329s49.541-8.61 87.711 4.099c38.171 12.709 64.565 27.469 64.565 27.469s19.085-34.438 37.358-52.887c18.273-18.449 30.455-30.748 34.922-38.127 14.212-22.548 0.812-71.336 0.812-71.336s-9.745-10.659-8.933-16.809h19.491c0 0 2.437 4.92 5.279 6.969 2.437 2.050 5.279 5.74 2.031 9.43-3.248 4.099-4.060 9.019-3.248 13.119 0.812 3.69 7.716 3.28 8.122 11.070 0 7.38-2.437 9.019-2.437 14.349 0 5.74-2.437 13.939-4.467 23.779s-4.060 25.418-8.527 40.587c-4.060 15.169-7.309 15.169-14.618 23.779-6.903 8.61-6.091 25.829 1.218 38.947 3.248 5.739 9.339 26.238 6.903 46.327 13.401-22.548 18.679-59.856 17.461-83.225-1.218-31.158 15.43-80.765 15.43-80.765v0z" />
<glyph unicode="&#xe99f;" glyph-name="Parrots" d="M235.774 5.247c0-1.076 1.088-1.937 2.175-1.937h9.57c1.088 0 2.175 0.861 2.175 1.937l10.44 65.421c0.217 1.076 1.087 2.367 1.957 2.798l8.7 4.95c0.87 0.646 1.957 1.937 2.175 2.798l18.052 102.651h-77.209l21.966-178.616zM195.32 226.472c15.66 14.849 26.969 35.078 30.232 56.597 0.218 1.507 0.435 3.228 0.653 4.734 2.175 21.52-2.827 43.040-13.702 61.332-2.61 4.304-5.438 8.393-8.7 12.267-10.44-9.038-16.964-21.735-16.964-35.723l8.482-98.561v-0.645zM235.556 284.792c-0.435-3.013-0.87-6.026-1.74-9.038-4.35-19.799-14.355-37.875-28.492-52.509h107.223c0.435 1.291 0.652 2.583 1.087 4.089l11.092 98.346c0 19.368-8.264 36.369-23.924 44.546l-21.096-0.215c-4.35 0-8.264 2.367-10.222 5.81-1.087 1.721-1.74 3.659-1.74 5.811l-0.217 45.622c0 1.722 0.217 3.228 0.87 4.519-4.132 1.507-8.264 2.152-12.832 2.152-23.707-0.215-43.064-22.596-43.064-50.142 0 0-0.218-17.431 0-17.647 18.269-22.811 26.969-52.293 23.054-81.346v0zM250.127 418.431c6.307 0 6.307-9.684 0-9.684s-6.307 9.684 0 9.684v0zM279.924 379.48l19.139 0.215 24.577 0.215c-0.435 33.571-34.363 49.066-43.716 49.066h-0.217c-1.087 0-2.175-1.076-2.175-2.152v0l0.217-45.622c0-0.646 0.87-1.722 2.175-1.722v0zM396.935 213.346h-281.868c-10.874 0-10.874-19.583 0-19.583h281.868c10.875 0 10.875 19.583 0 19.583v0z" />
<glyph unicode="&#xe9a0;" glyph-name="Pigeons" d="M439.305 372.176c-1.508 3.022-4.147 6.421-8.106 9.632-3.204 2.455-7.728 6.798-9.991 10.198-4.712 6.421-13.384 15.486-26.391 15.675-20.17 0.377-49.2-18.13-51.462-58.166s-27.711-98.768-46.373-111.609c-18.662-12.841-50.708-57.41-97.834-72.518s-106.129-24.928-105.374-40.791c0.566-12.653 46.938-10.387 65.223-8.876 3.958 0.377 4.147-0.567 0.377-1.889-20.17-7.743-77.665-30.971-78.23-43.435-0.754-15.108 71.632 24.173 126.865 27.194s85.582 6.421 101.228-20.774c0 0 3.016-5.099 8.671-10.764-1.508-0.567-2.45-0.944-2.45-0.944-0.565-0.189-0.942-0.567-1.131-1.133s-0.188-1.133 0.188-1.511l6.974-12.087c-3.393-0.567-6.786-1.322-9.803-2.644-3.77-1.7-3.393-4.154-0.565-3.399 2.639 0.567 4.901 0 4.901-1.511s2.827-1.133 6.598 0.377c4.336 1.889 9.803 3.777 12.065 3.022 1.508-0.567 2.639-1.511 3.393-2.455 1.508-1.7-1.131-3.211-5.089-3.588-3.393-0.189-7.351-0.944-10.557-2.644-3.582-1.889-2.074-4.154 1.885-3.588 6.409 1.133 15.269 2.266 19.039 0.944 6.032-2.266 22.055-7.176 34.308-3.777 8.483 2.266 17.154 4.91 23.752 6.232 3.959 0.755 10.18 4.344 6.974 5.476-1.32 0.377-3.204 0.755-6.032 0.755-9.803 0.377-17.719-3.211-25.072-3.022-3.959 0.189-4.901 4.344-1.508 6.61 2.45 1.7 5.655 3.211 9.614 4.154s5.089 3.588 1.131 4.533c-3.204 0.944-7.728 1.133-14.138-0.377-11.122-2.644-20.547-2.644-27.145 0.944l3.77 2.077c0.565 0.189 0.754 0.755 0.942 1.322s0 1.133-0.377 1.511l-12.065 14.541c-0.377 0.377-0.754 0.567-1.32 0.567-0.377 0-0.754-0.189-0.942-0.377-0.565 12.464 4.147 29.838 24.128 45.89 29.407 23.795 55.609 37.392 63.904 71.385s-14.515 127.096-14.515 127.096c0 0-3.77 14.919-1.885 28.705 0.565 3.966 3.393 10.009 6.598 12.464 4.147 3.211 11.122 6.421 21.49 5.099 3.582-0.566 6.221 1.889 4.336 5.477v0zM335.627 71.906l9.425-11.331-19.416-10.575-6.974 12.087c3.582 1.511 11.31 4.91 16.966 9.82v0zM326.014 60.198c0.188 0.377 0.565 0.944 1.131 1.322s1.131 0.377 1.32 0c0.377-0.567-0.188-1.133-0.754-1.511l-0.565-0.377 0.754-1.133 0.565 0.377c0.754 0.377 1.508 0.567 1.885-0.189 0.377-0.567 0.188-1.133-0.565-1.7-0.565-0.377-1.32-0.567-1.697-0.567l0.377-1.322c0.565 0 1.32 0.189 2.262 0.755 1.697 1.133 2.074 2.455 1.508 3.777-0.565 0.944-1.508 1.133-2.45 0.755v0c0.565 0.755 0.754 1.511 0.188 2.266-0.565 0.944-1.885 1.133-3.204 0.189-0.942-0.567-1.508-1.322-1.697-1.7l0.942-0.944zM332.8 65.108c0.754 0.377 1.32 0.189 1.697-0.377 0.377-0.755 0.188-1.889-0.377-4.154l-0.377-1.322 0.565-0.944 4.712 2.832-0.754 1.322-2.45-1.511 0.377 0.944c0.377 1.511 0.754 2.832 0 3.966s-2.074 1.511-3.582 0.567c-0.942-0.567-1.508-1.322-1.697-2.077l1.131-0.755c-0.188 0.567 0.188 1.133 0.754 1.511v0z" />
<glyph unicode="&#xe9a1;" glyph-name="Sheeps" d="M114.229 289.63c9.534 10.405 15.89 43.62 15.89 43.62 20.26-3.202 32.574 12.005 17.082 20.81-15.493 9.204-33.368-6.003-33.368-6.003-7.547 0-13.506 4.802-13.506 4.802-8.74-6.803-8.74-18.008-19.067-18.008-19.465 0-18.671-8.804-18.671-8.804 0-14.807 14.3-19.609 25.82-20.009s25.82-16.407 25.82-16.407v0zM105.093 332.85c-1.986 0-3.575 1.601-3.575 3.601s1.589 3.601 3.575 3.601c1.986 0 3.575-1.601 3.575-3.601s-1.589-3.601-3.575-3.601v0zM459.034 295.633c0 10.405-13.904 18.808-30.985 18.808-3.575 0-7.151-0.4-10.329-1.201-9.931 10.005-21.849 18.009-36.944 22.411-49.258 14.406-78.257-5.202-100.899-12.006-23.040-7.203-92.954 9.605-98.913 24.011s-22.245 26.412-49.655 26.412c-21.054 0-27.807-12.405-30.191-18.409 0.397 0 0.794 0 1.192-0.4 0 0 4.767-3.202 10.329-3.601 3.178 2.401 12.712 8.804 23.835 8.804 4.369 0 8.739-1.2 12.315-3.201 9.534-5.603 9.137-12.806 8.342-15.607-1.986-7.603-11.917-13.206-24.232-12.005-1.986-8.804-7.945-33.216-16.287-42.42-0.397-0.8-1.192-1.2-2.383-1.2-0.794 0-1.589 0.4-2.383 1.2 0 0-0.397 0.4-0.794 0.8-6.356-14.807 7.547-28.813 9.931-47.221 2.383-20.409 20.259-33.216 36.546-46.421 14.3-12.005 17.876-36.017 37.738-42.42 2.78-10.005 6.753-25.612 7.15-37.217 0.397-19.209-2.383-14.807-2.383-14.807s-0.794-0.4-2.78-0.4c-14.3 0.4-15.493-20.409-15.493-20.409 14.3-8.804 29.396-1.601 29.396-1.601s0.794 13.606 0.794 19.209c0 5.603 5.958 11.606 5.958 11.606l0.397 44.421c18.671 7.204 23.040 28.413 23.040 28.413s23.437-14.406 59.189-14.406c36.149 0 44.889 11.205 44.889 11.205s23.040-28.013 53.627-29.613c2.781-10.005 6.356-18.409 6.753-29.613 0.397-19.209-1.589-18.409-1.589-18.409s-0.795-0.8-2.781-0.8c-14.698 0.4-15.889-20.009-15.889-20.009 14.698-9.204 29.793-1.601 29.793-1.601s0.397 13.206 0.397 18.808c0 5.603 6.356 12.005 6.356 12.005v42.82c16.684 7.204 22.245 26.412 25.026 65.63 1.589 21.209-1.192 42.419-8.342 61.228 11.917 2.801 20.26 9.204 20.26 17.208v0z" />
<glyph unicode="&#xe9a2;" glyph-name="MobileTabletAccessories" d="M232.715 162.924v166.094c0 5.536-4.588 9.843-10.094 9.843h-21.106v30.758c0 1.538-0.612 3.076-1.835 4.306v22.146c0 3.076-2.447 5.536-5.812 5.536-3.059 0-5.812-2.461-5.812-5.536v-22.146c-1.224-0.923-1.835-2.461-1.835-4.306v-30.758h-48.941v30.758c0 1.538-0.612 3.076-1.835 4.306v22.146c0 3.076-2.447 5.536-5.812 5.536s-5.812-2.461-5.812-5.536v-22.146c-1.224-0.923-1.835-2.461-1.835-4.306v-30.758h-20.8c-5.506 0-10.094-4.306-10.094-9.843v-165.786c0-5.536 4.588-9.842 10.094-9.842h121.129c5.812-0.308 10.4 3.998 10.4 9.535zM420.833 275.499h-14.070c-4.283 5.229-11.317 8.612-19.27 8.612s-14.988-3.383-19.27-8.612h-13.764c-2.447 0-4.283-1.846-4.283-4.306v-71.359c0-2.461 1.836-4.306 4.283-4.306h3.365v-40.293c0-3.384 3.059-6.151 6.423-6.151h46.494c3.365 0 6.423 2.768 6.423 6.151v40.293h3.365c2.447 0 4.283 1.846 4.283 4.306v71.666c0.612 2.153-1.529 3.999-3.976 3.999zM412.574 155.235c0-0.923-0.612-1.538-1.529-1.538h-46.8c-0.918 0-1.529 0.615-1.529 1.538v40.293h49.859v-40.293zM369.75 166.923h12.236c0.918 0 1.836 0.923 1.836 1.846v3.998c0 0.923-0.918 1.846-1.836 1.846h-12.236c-0.918 0-1.836-0.923-1.836-1.846v-3.998c0-0.923 0.918-1.846 1.836-1.846zM393.916 166.923h12.236c0.918 0 1.836 0.923 1.836 1.846v3.998c0 0.923-0.918 1.846-1.836 1.846h-12.236c-0.918 0-1.836-0.923-1.836-1.846v-3.998c0-0.923 0.918-1.846 1.836-1.846zM367.61 356.7c7.036-8.92 11.623-21.839 11.623-36.602v-33.219h14.683v33.219c0 17.532-5.506 33.219-14.683 45.214-9.176 11.688-22.635 19.685-37.623 19.685s-28.447-7.69-37.623-19.685c-9.176-11.688-14.683-27.683-14.683-45.214v-66.438l-0.306 0.308v-37.832c0-0.923 0.306-1.538 0.306-2.461v-100.579c0-27.99-23.247-50.443-52-50.443h-11.317c-29.059 0-52 22.454-52 50.443v35.065h-15.294v-34.757c0-35.68 29.977-64.899 66.683-64.899h11.317c36.706 0 66.682 28.913 66.682 64.899v206.695c0 14.457 4.588 27.375 11.623 36.602 7.036 8.92 16.212 14.148 26 14.148s19.577-5.229 26.612-14.148z" />
<glyph unicode="&#xe9a3;" glyph-name="MobilePhones" d="M319.976 391.724h-136.286c-12.964 0-23.66-11.014-23.66-24.366v-285.214c0-13.351 10.534-24.366 23.66-24.366h136.448c12.964 0 23.659 10.848 23.659 24.366v285.214c-0.162 13.351-10.695 24.366-23.822 24.366v0 0zM218.208 376.871h67.251c1.783 0 3.079-2.67 3.079-5.841 0-3.338-1.459-5.841-3.079-5.841h-67.251c-1.782 0-3.079 2.67-3.079 5.841 0 3.338 1.297 5.841 3.079 5.841v0 0zM251.915 81.977c-8.264 0-15.071 7.010-15.071 15.521s6.806 15.521 15.071 15.521c8.265 0 15.071-7.010 15.071-15.521-0.162-8.678-6.806-15.521-15.071-15.521v0 0zM325.973 135.048h-148.278v215.621h148.116v-215.621h0.162z" />
<glyph unicode="&#xe9a4;" glyph-name="Tablets" d="M362.457 400.552v0c8.685 0 15.727-7.041 15.727-15.727v-318.562c0-8.685-7.041-15.727-15.727-15.727l-214.316-0c-8.686 0-15.727 7.041-15.727 15.727v318.563c0 8.686 7.041 15.726 15.727 15.726h214.316zM255.299 73.9v0c4.399 0 7.965 3.567 7.965 7.966s-3.565 7.964-7.964 7.964c-4.399 0-7.965-3.565-7.965-7.964s3.566-7.966 7.965-7.966zM152.161 109.43h206.276v272.171h-206.276v-272.171z" />
<glyph unicode="&#xe9a5;" glyph-name="SpecialPlateNumbers" d="M422.7 295.874l-329.346-0.094c-2.507 0-4.802-0.853-6.656-2.318-0.029-0.018-0.076-0.041-0.118-0.065-0.124-0.112-0.259-0.224-0.412-0.347-0.006-0.017-0.029-0.041-0.041-0.059-0.477-0.418-0.93-0.883-1.33-1.377-0.012-0.030-0.041-0.065-0.059-0.094-0.088-0.135-0.2-0.276-0.3-0.412-0.053-0.047-0.070-0.070-0.094-0.117-0.076-0.147-0.206-0.306-0.3-0.459-0.012-0.024-0.012-0.035-0.047-0.064-0.1-0.177-0.171-0.371-0.306-0.559v-0.024c-0.094-0.171-0.177-0.341-0.282-0.518-0.029-0.059-0.053-0.106-0.076-0.165-0.053-0.123-0.094-0.271-0.159-0.418-0.017-0.059-0.035-0.118-0.064-0.165-0.070-0.165-0.118-0.3-0.165-0.447-0.035-0.059-0.035-0.112-0.053-0.147-0.053-0.212-0.124-0.4-0.153-0.618v-0.041c-0.082-0.183-0.118-0.377-0.153-0.583 0-0.059-0.023-0.112-0.023-0.189-0.047-0.141-0.047-0.282-0.064-0.435-0.023-0.065-0.023-0.153-0.047-0.218 0-0.159-0.012-0.3-0.047-0.459v-0.206c-0.012-0.2-0.012-0.418-0.012-0.635v-121.462c0-6.138 4.908-11.152 10.946-11.152l64.141 0.094v10.87c0 1.954 1.26 3.62 3.031 4.161 0.183 0.059 0.365 0.094 0.559 0.135 0.030 0 0.071 0 0.118 0.012 0.194 0.024 0.376 0.047 0.583 0.047h188.446c2.101 0 3.778-1.589 4.132-3.62 0.465-1.071 0.382-1.966 0.382-1.966v-9.457h-0.241v-0.183h68.202c0.183 0 0.418 0 0.606 0.024 0.094 0 0.147 0 0.2 0.012 0.141 0 0.295 0.012 0.442 0.036 0.070 0.012 0.147 0.024 0.212 0.036 0.141 0.012 0.3 0.047 0.442 0.070 0.041 0.012 0.112 0.024 0.188 0.036 0.171 0.036 0.371 0.070 0.559 0.123h0.036c0.206 0.070 0.412 0.123 0.606 0.183 0.047 0.012 0.112 0.024 0.141 0.070 0.147 0.036 0.3 0.082 0.442 0.135 0.070 0.047 0.118 0.047 0.183 0.070 0.118 0.070 0.271 0.123 0.394 0.183 0.047 0.024 0.13 0.047 0.165 0.082 0.176 0.082 0.371 0.159 0.524 0.265 0 0.012 0.024 0.012 0.024 0.012 0.183 0.094 0.359 0.206 0.541 0.312 0.024 0.024 0.053 0.036 0.065 0.059 0.147 0.094 0.318 0.194 0.453 0.3 0.047 0.024 0.065 0.059 0.112 0.082 0.141 0.094 0.271 0.194 0.412 0.312 0.029 0.024 0.065 0.047 0.1 0.070 0.465 0.389 0.965 0.853 1.348 1.324 0.017 0.024 0.059 0.047 0.059 0.070 0.123 0.135 0.247 0.276 0.341 0.412 0.036 0.036 0.059 0.070 0.059 0.094 1.436 1.883 2.289 4.243 2.289 6.791v121.45c0.012 6.138-4.885 11.14-10.928 11.14zM359.43 264.065c0 1.113 0.312 2.137 0.83 3.048 0.765 0.335 1.618 0.536 2.513 0.536h31.421c3.519 0 6.368-2.907 6.368-6.45v-1.447c0-1.313-0.377-2.536-1.071-3.548-0.612-0.236-1.277-0.359-1.954-0.359h-32.067c-3.313 0-6.032 2.772-6.032 6.144v2.077zM111.451 264.065c0 1.113 0.294 2.137 0.806 3.048 0.759 0.335 1.618 0.536 2.507 0.536h31.426c3.525 0 6.362-2.907 6.362-6.45v-1.447c0-1.313-0.376-2.536-1.048-3.548-0.642-0.236-1.271-0.359-1.942-0.359h-32.091c-3.331 0-6.014 2.772-6.014 6.144v2.077zM404.663 191.209c0-0.783-0.977-1.447-2.231-1.447h-292.852c-1.248 0-2.242 0.665-2.242 1.447v0.336c0 0.807 0.995 1.459 2.242 1.459h292.852c1.253 0 2.231-0.653 2.231-1.459v-0.336z" />
<glyph unicode="&#xe9a6;" glyph-name="SpecialPhoneNumbers" d="M287.091 244.374c-2.148 2.131-5.038 3.325-8.068 3.325h-67.696c-3.584 0-6.497-2.889-6.497-6.444v-150.681c0-3.56 2.913-6.45 6.497-6.45h98.151c3.572-0.012 6.486 2.866 6.486 6.426v120.479c0 3.007-1.2 5.891-3.349 8.003l-25.524 25.341zM370.57 331.791l-51.524 51.247c-5.596 5.567-13.147 8.686-21.056 8.686h-136.686c-10.964 0-19.862-8.845-19.862-19.738v-304.716c0-10.899 8.898-19.738 19.862-19.738h198.144c10.964-0.041 19.862 8.804 19.862 19.703v243.636c0 7.856-3.137 15.395-8.74 20.921zM322.642 90.55c0-7.233-5.914-13.082-13.176-13.059h-98.139c-7.274 0-13.177 5.856-13.177 13.082v150.681c0 7.221 5.903 13.077 13.177 13.077h67.696c4.802 0 9.392-1.889 12.794-5.267l25.512-25.335c3.401-3.349 5.314-7.927 5.314-12.7v-120.479z" />
<glyph unicode="&#xe9a7;" glyph-name="Menswear" d="M223.332 324.134c0.359-1.076 1.436-1.792 2.872-1.792v0c1.077 0 2.154 0.358 2.872 1.433 7.18 12.903 17.95 14.695 23.334 14.695v0-45.161c0-1.792 1.436-3.584 3.59-3.584 1.795 0 3.231 1.792 3.231 3.584v45.161c5.744 0 16.154-2.151 23.334-14.695 0.359-1.075 1.436-1.433 2.513-1.433h0.359c1.077 0 2.154 0.717 2.872 1.792l20.822 40.501c0.359 1.076 0.359 2.15 0 3.226l-15.796 28.315c0 0.358-0.718 0.717-1.077 1.075 0 0-0.359 0-0.359 0.359h-72.156c-0.359-0.359-0.359-0.359-0.718-0.359-0.359-0.358-0.718-0.717-1.077-1.075v0 0 0l-15.796-28.315c-0.359-1.076-0.359-2.15 0-3.226l21.18-40.501zM284.719 332.019c-7.539 9.678-16.873 12.186-22.976 12.903l28.719 43.368 11.846-22.222-17.591-34.050zM221.178 388.291l28.36-43.368c-5.744-0.717-15.436-3.226-22.976-12.903l-17.59 34.050 12.206 22.222zM364.774 366.068h-42.361c0-2.509-0.359-5.018-1.795-7.527l-20.822-40.502c-2.513-5.376-8.257-8.96-14-8.96h-0.718c-5.026 0-9.692 2.509-12.923 6.452v-22.222c0-9.319-7.18-16.487-16.154-16.487-9.334 0-16.513 7.168-16.513 16.487v22.581c-3.231-4.301-8.256-6.81-13.282-6.81h-0.359c-6.103 0-11.488 3.584-14.359 8.96l-20.822 40.502c-1.436 2.509-1.795 5.018-1.795 7.527v0 0h-42.001l-70.362-70.25 40.924-41.218 29.437 29.391v-232.256h217.547v232.614l29.796-29.749 41.284 41.218-70.721 70.25zM326.161 363.175l-21.954 2.089-17.377-37.813-3.336-1.677-3.274 3.944-3.674 4.313-4.839 4.072-10.602 1.901-12.503 0.766-6.099-3.674-6.117-2.794-5.237-5.875-2.412-3.802-3.626 1.517-5.079 10.97-14.45 28.153-22.789-2.089 29.702-55.774 16.861-31.166 80.401-0.813 19.144 43.798z" />
<glyph unicode="&#xe9a8;" glyph-name="WaterCoolersAndFilters" d="M345.906 396.956h-168.048c-8.498-8.504-8.498-10.464 1.306-17.655 1.306-1.313 2.613-3.272 2.613-5.232-0.653-8.498 4.578-19.615-7.845-24.847-0.653-0.653-0.653-9.81 1.959-11.77 7.845-7.192 8.504-10.464 0-16.349-6.538-4.579-5.885-11.117 0.653-15.695 1.959-1.313 4.578-4.579 4.578-6.538v-63.429c-4.578-5.885-9.81-9.151-9.81-13.077s5.232-7.845 9.81-10.464v-10.464c-1.306-0.647-3.925-0.647-4.578-1.954-1.959-3.278-5.885-7.197-5.232-9.817 0.653-3.266 5.885-6.533 9.151-6.533 15.696-0.653 31.385 0 47.081 0 5.885 0 11.77 0.647 11.117-7.845 0-1.313 4.578-3.925 6.538-3.925h20.274c5.885 0 11.117-0.653 11.117 7.845 0 1.313 5.232 3.925 7.851 3.925 15.69 0.647 31.379 0 47.081 0.647 3.92 0 7.839 3.931 11.77 5.885-1.966 3.931-4.579 7.197-6.538 11.123-1.966 3.925-3.278 7.845-4.579 11.117 15.042 7.192 15.695 11.117 4.579 19.615-1.313 1.306-2.619 3.925-2.619 5.885 0 20.928-0.653 41.849 0 62.776 0 1.959 2.619 5.232 4.579 6.538 6.533 4.578 7.192 10.464 1.959 15.036-6.538 5.232-6.538 5.232-5.885 13.083 3.925 1.959 7.197 4.572 11.117 6.538v7.845c-16.343 5.232-10.457 18.962-11.111 28.119 3.925 2.613 7.851 5.232 11.117 7.845v11.77zM265.481 200.13c-4.572 0-8.504 3.925-7.845 8.498 0 4.572 3.925 7.851 8.504 7.851 3.266-0.653 7.192-4.579 7.192-8.504-0.006-4.572-3.931-7.845-7.851-7.845zM258.942 262.906c0.653 7.845 6.538 13.73 14.383 13.73 0.077-0.006 0.147-0.029 0.224-0.041 0.147 0 0.288 0.041 0.43 0.041 7.192-0.653 13.73-6.538 13.73-14.383s-6.538-13.73-13.73-13.73c-0.165-0.012-0.318 0.024-0.476 0.018-0.059 0-0.118-0.018-0.176-0.018-0.13 0-0.253 0.036-0.382 0.036-1.872 0-3.643 0.335-5.243 1.018-5.55 2.137-9.257 7.339-8.757 13.329zM284.449 221.058c-6.538 0-11.123 5.232-11.123 11.117s5.238 10.458 11.123 10.458c5.885-0.653 10.457-5.232 10.457-11.117s-5.226-10.458-10.457-10.458zM319.106 301.488h-3.278c-21.575 10.464-41.843 5.885-62.117-3.272-12.423-5.885-25.5-4.572-37.929 0-5.885 1.959-14.383 1.313-17.002 5.232-2.613 4.579-1.306 13.077-1.306 19.615v47.081c0 6.538 1.306 9.81 9.157 9.81h103.312c4.579 0 9.163 0.653 9.163-5.885v-72.58zM323.025 167.438h-127.512c-9.157 0-12.423-3.266-12.423-12.423v-92.855c0-9.157 3.266-12.423 12.423-12.423h126.858c10.464 0 12.423 1.966 12.423 13.082 0 31.385-0.653 62.117 0 92.849 0.653 8.504-3.266 11.77-11.77 11.77zM318.447 105.322h-119.007c-1.306 20.921 15.042 41.195 36.623 42.502 15.036 1.307 30.738 1.307 46.427 0 20.921-1.307 37.918-21.58 35.957-42.502zM239.981 138.014h-1.959c-2.613 0-5.232-2.613-5.232-5.232v-14.383c0-2.613 2.613-5.238 5.232-5.238h1.959c3.272 0 5.232 2.619 5.232 5.238v14.383c0 2.613-2.619 5.232-5.232 5.232zM278.563 138.014h-1.966c-2.613 0-5.232-2.613-5.232-5.232v-14.383c0-2.613 2.613-5.238 5.232-5.238h1.966c3.266 0 5.232 2.619 5.232 5.238v14.383c0 2.613-2.625 5.232-5.232 5.232z" />
<glyph unicode="&#xe9aa;" glyph-name="MensShoes" d="M330.538 266.864c30.311 0 51.296 11.269 64.119 21.761-29.145-8.549-76.166-17.875-115.026-6.606 8.938-7.383 24.482-15.155 50.906-15.155zM340.253 175.543h105.7v-24.093h-105.7v24.093zM421.86 297.563c0 0-27.202-44.689-91.321-44.689s-75.388 40.415-75.388 40.415c0 0-4.663-8.549-13.601-20.207l10.492-20.207-12.435-6.218-7.772 15.155c-1.554-1.943-3.109-3.498-5.052-5.44l10.103-19.041-12.435-6.218-8.161 15.544c-1.554-1.554-3.498-3.109-5.441-4.663l8.161-15.933-12.435-6.217-6.995 13.989c-8.549-5.441-17.875-10.104-28.368-12.824-52.461-15.544-106.477-14.767-106.477-14.767v-16.71c0 0 24.871-38.083 138.731-38.083 77.332 0 136.788 38.083 136.788 38.083v0h94.041c0 0.777 19.041 78.886-12.435 108.031z" />
<glyph unicode="&#xe9ab;" glyph-name="MenWatches" d="M315.91 343.231v54.378h-126.058v-54.378c18.714 9.887 40.254 15.537 63.206 15.537 22.599 0 44.138-5.649 62.852-15.537zM189.852 99.237v-54.731h126.058v54.731c-18.714-9.887-40.254-15.536-62.852-15.536-22.952 0-44.491 5.649-63.206 15.536zM253.058 345.703c-68.502 0-123.586-55.79-123.586-124.292 0-68.855 55.084-124.646 123.586-124.646 68.149 0 123.586 55.791 123.586 124.645 0 68.502-55.437 124.293-123.586 124.293zM307.082 214.702h-60.734v90.748h13.065v-77.683h47.669v-13.065z" />
<glyph unicode="&#xe9ac;" glyph-name="PerfumeIncenseForMen" d="M290.767 341.33c-1.608-5.786-9.644-7.072-13.501-7.715-5.464-0.964-12.858-1.286-20.894-1.286-7.715 0-15.108 0.643-20.894 1.286-4.179 0.643-11.894 1.928-13.501 7.715-18.644-8.037-37.61-24.752-37.61-61.076v-217.302c0 0 0-29.252 27.645-29.252h89.042c27.645 0 27.645 29.252 27.645 29.252v216.981c0 36.324-19.287 53.361-37.931 61.398zM256.371 338.759c15.43 0 27.966 1.928 27.966 4.5v66.862c0 2.572-12.536 4.5-27.966 4.5s-27.966-1.928-27.966-4.5v-66.862c0.321-2.572 12.536-4.5 27.966-4.5z" />
<glyph unicode="&#xe9ad;" glyph-name="MenPersonalCareDevices" d="M164.781 381.219v-11.858c0-2.295 1.53-3.826 3.826-4.208l164.488-8.033c1.53 0 3.060 1.147 3.825 3.060l9.18 29.072c0 0.382 0.382 0.765 0.382 1.147v17.979c0 2.295-1.913 4.208-4.208 4.208l-160.662 2.678c-1.53 0-3.060-0.765-3.826-2.295l-13.006-30.22v-1.53zM326.974 383.132l-148.804 5.356 2.678 5.356 147.656-5.356-1.53-5.356zM176.257 381.219l2.678 5.356 147.656-5.356-1.53-5.356-148.804 5.356zM288.721 320.397c0 18.362-3.443 29.837-6.885 36.723l11.858-0.765c1.913-9.946 4.591-25.63 4.591-43.991 0-31.368 2.678-270.83 2.678-270.83l-12.241-8.033v286.897zM278.775 357.12c3.060-6.12 7.268-17.979 7.268-36.723v-287.661l-23.717 6.12v288.809c0 15.301-1.147 24.864-2.678 30.603l19.127-1.148z" />
<glyph unicode="&#xe9ae;" glyph-name="BankingAndFinance" d="M85.183 70.491h350.461v-13.018h-350.461v13.018zM108.664 255.56h43.106v-172.051h-43.106v172.052zM368.707 255.56h43.106v-172.051h-43.106v172.052zM283.194 255.56h43.457v-172.051h-43.457v172.052zM194.877 255.56h43.106v-172.051h-43.106v172.052zM260.063 391.724l-174.88-123.145h350.461l-175.581 123.146zM260.414 300.596c-14.369 0-25.584 11.611-25.584 25.685s11.215 25.685 25.584 25.685c14.019 0 25.233-11.611 25.233-25.685s-11.215-25.685-25.233-25.685v0z" />
<glyph unicode="&#xe9af;" glyph-name="BarberAndHairdresser" d="M250.316 67.18c-2.487-11.716 4.974-23.076 16.696-25.561 11.723-2.84 23.091 4.97 25.577 16.685l33.748 157.271-43.694 3.905-32.327-152.3zM79.448 252.852l42.983-4.26v122.835l-42.983-3.905v-114.669zM352.624 393.793l-217.048-20.946v-125.674l217.048-20.946c44.049 0 79.928 35.501 79.928 79.523v8.52c0 44.022-35.879 79.523-79.928 79.523v0z" />
<glyph unicode="&#xe9b0;" glyph-name="Craftsmen" d="M440.894 409.38h-313.247c-14.936 0-26.969-12.094-26.969-26.691v-69.646c0-15.014 12.032-27.108 26.969-27.108h313.247c14.522 0 26.969 12.094 26.969 27.108v69.646c0 14.596-12.447 26.69-26.969 26.69v0zM428.032 325.971h-287.524v43.372h287.524v-43.372zM284.063 180.424c-10.788 0-19.915-9.175-19.915-20.435v-107.18c0-11.26 9.127-20.018 19.915-20.018 11.202 0 20.33 8.758 20.33 20.018v107.18c0 11.26-9.127 20.435-20.33 20.435v0zM276.18 195.438c2.49 0.417 5.394 0.834 7.883 0.834 2.904 0 5.394-0.417 7.883-0.834v32.529c0 4.588-3.319 8.341-7.883 8.341h-215.332v103.009h16.181v16.264h-24.064c-4.564 0-7.883-3.754-7.883-8.341v-119.274c0-4.171 3.319-7.924 7.883-7.924h215.332v-24.606z" />
<glyph unicode="&#xe9b1;" glyph-name="Design" d="M394.087 89.26c-18.317 18.948 24.942 48.724-6.625 80.046-22.993 22.428-60.017 22.428-83.010 0-22.993-22.815-19.875-56.844 0-82.367 34.296-43.697 94.312-60.325 145.365 11.988 0 0-37.024-28.615-55.73-9.668v0zM327.055 197.149l-224.478 203.403-31.957-31.323 205.772-222.738c3.118 11.988 8.964 22.815 18.317 32.096s20.655 15.468 32.346 18.562v0z" />
<glyph unicode="&#xe9b2;" glyph-name="DriversAndDelivery" d="M256 391.724c-92.584 0-167.724-75.14-167.724-167.724s75.141-167.724 167.724-167.724c92.584 0 167.724 75.141 167.724 167.724s-75.141 167.724-167.724 167.724v0 0zM256 349.793c54.51 0 100.635-35.222 118.078-83.862h-236.155c17.444 48.64 63.4 83.862 118.078 83.862v0 0zM256 203.034c-11.573 0-20.965 9.392-20.965 20.966s9.393 20.965 20.965 20.965c11.573 0 20.966-9.393 20.966-20.965s-9.392-20.966-20.966-20.966v0 0zM130.207 224c57.194 0 103.654-55.181 104.66-123.613-59.207 10.063-104.66 61.555-104.66 123.613v0 0zM277.133 100.387c1.007 68.431 47.298 123.613 104.66 123.613 0-62.058-45.453-113.549-104.66-123.613v0 0z" />
<glyph unicode="&#xe9b3;" glyph-name="EducationJobs" d="M441.856 100.469c0-6.416-11.008-11.699-25.053-11.699-13.665 0-24.673 5.284-24.673 11.699 0 5.661 8.351 10.189 19.359 11.322v13.209c-5.694 2.264-9.869 7.548-9.869 14.341 0 6.416 4.175 11.699 9.869 13.963v67.928c0 15.85-10.249 30.567-9.869 30.19l9.49 5.661c0.38-0.755 11.008-16.605 11.008-35.851v-67.928c6.074-1.887 10.249-7.548 10.249-13.963 0-6.793-4.175-12.076-10.249-14.341v-12.831c11.387-1.132 19.738-6.038 19.738-11.699v0zM401.62 251.421c-5.694 11.322-20.118 17.359-39.477 17.359h-101.729c-11.767 0-21.257 9.435-21.257 21.133s9.489 21.133 21.257 21.133c11.387 0 20.877-9.435 20.877-21.133 0-3.774-1.139-7.17-2.657-10.567h83.509c23.155 0 40.995-8.303 48.966-23.020l39.098 21.51-189.793 96.232-189.793-96.232 189.793-103.779 141.206 77.363zM365.939 219.721l-7.212-101.892-98.313-52.455-98.692 52.456-7.212 101.892 100.591-54.72 5.314-3.019 4.935 3.019 100.591 54.72zM271.042 289.536c0-5.661-4.555-10.566-10.628-10.566-5.694 0-10.629 4.906-10.629 10.566 0 6.038 4.934 10.566 10.629 10.566 6.074 0 10.628-4.529 10.628-10.566v0z" />
<glyph unicode="&#xe9b4;" glyph-name="Engineering" d="M351.020 307.792c0-2.225-2.224-4.449-4.82-4.449-1.854 0-3.707 1.483-4.449 3.337-5.19 3.708-36.705 8.528-85.274 8.528s-80.084-4.82-85.274-8.528c-0.742-1.854-2.595-3.337-4.449-3.337-2.595 0-4.82 2.225-4.82 4.449 0 5.561 5.19 10.010 30.402 13.347 17.055 2.225 40.042 8.156 64.141 8.156s47.087-5.932 64.141-8.156c25.212-3.337 30.402-7.786 30.402-13.347v0zM239.792 406.784c-1.113 0-1.854-0.741-1.854-1.854v-74.893c5.932 0.741 12.235 1.112 18.538 1.112s12.606-0.371 18.538-1.112v74.893c0 1.113-0.741 1.854-1.854 1.854h-33.368zM317.652 338.193c-0.371 0-1.113 0-1.113-0.371-0.741 0-0.741-0.741-0.741-1.113v-12.976c1.483-0.371 3.337-0.742 5.19-1.113 10.752-1.113 18.538-2.966 23.728-5.19v11.864c0 0.742-0.741 1.483-1.483 1.854l-25.212 7.044h-0.371zM197.155 323.734v12.976c0 0.371 0 1.112-0.742 1.112 0 0.371-0.371 0.371-1.113 0.371h-0.371l-25.212-7.045c-0.742-0.371-1.483-1.112-1.483-1.854v-11.864c5.191 2.224 12.976 4.078 23.728 5.19 1.854 0.371 3.708 0.742 5.191 1.113v0zM195.302 340.048c1.113 0 1.854 0 2.595-0.741 0.742-0.371 1.483-1.483 1.483-2.596v-12.976c2.966 0.741 6.303 1.483 10.011 1.854 8.528 1.854 17.797 3.337 27.436 4.449v74.893c0 1.483 1.483 2.966 2.966 2.966h33.368c1.483 0 2.966-1.483 2.966-2.966v-74.893c9.639-1.112 18.909-2.595 27.436-4.449 3.707-0.371 7.045-1.113 10.010-1.854v12.976c0 1.113 0.741 2.225 1.854 2.596 0.371 0.741 1.113 0.741 2.224 0.741h0.741l16.684-4.82c-4.079 25.953-20.392 47.457-43.379 58.58-3.337-8.156-11.865-28.178-12.976-44.12h-0.741v7.044c3.337 19.65 13.348 40.784 13.718 41.154v0.742c0 0.371-0.371 0.371-0.741 0.742l-12.976 4.078v1.483c0 2.596-2.224 4.449-4.82 4.449h-33.368c-2.595 0-4.82-1.854-4.82-4.449v-1.483l-12.976-4.078c-0.371-0.371-0.742-0.371-0.742-0.742v-0.742c0.371-0.371 10.381-21.504 13.718-41.154v-7.044h-0.742c-1.113 15.942-9.639 35.964-12.976 44.12-22.617-11.123-39.3-32.627-43.379-58.58l16.684 4.82h0.742zM333.224 304.084c-5.562 2.595-32.256 7.045-76.747 7.045s-71.185-4.449-76.747-7.045c-0.742-1.113-1.483-1.854-2.225-2.595-0.371-2.966-0.371-5.932-0.371-8.898 0-53.019 35.593-96.026 79.343-96.026s79.342 43.008 79.342 96.026c0 2.966 0 5.932-0.371 8.898-0.741 0.741-1.483 1.483-2.224 2.595v0zM363.255 122.412v2.966c0 30.773-14.089 58.209-35.593 77.118v-44.12c0-22.245 20.392-31.885 35.593-35.964v0zM231.636 157.634v-119.014h49.681v119.755l24.841 53.76c-14.089-12.235-31.144-19.65-49.682-19.65s-35.593 7.415-49.681 19.65l24.841-53.76v-0.741zM285.396 38.62h77.859v79.713c-16.313 4.449-39.671 14.831-39.671 40.042v47.457c-3.707 2.966-7.786 5.562-12.235 8.156l-25.953-56.726v-118.643zM185.291 158.375v44.12c-21.504-18.909-35.222-46.345-35.222-77.118v-2.966c14.831 4.079 35.222 13.718 35.222 35.964v0zM227.558 38.62v118.643l-25.953 56.726c-4.078-2.596-8.528-5.19-12.235-8.156v-47.457c0-25.212-23.358-35.593-39.3-40.042v-79.713h77.488z" />
<glyph unicode="&#xe9b5;" glyph-name="HousekeepingJobs" d="M294.912 315.913c24.823 5.702 40.589 8.051 40.589 8.051v48.64c0 0-17.779 5.031-40.589 9.728v-66.419zM148.321 247.817c0-13.754-5.031-38.241-12.076-65.413h93.255c-6.709 27.171-12.076 51.659-12.076 65.412 0 53.001 57.697 64.071 65.412 65.412v71.45c-19.791 4.026-41.596 7.045-58.703 7.045h-41.26c-75.141 0-94.597-57.026-94.597-57.026v-22.475c0 0 60.045-7.715 60.045-64.406v0zM132.891 169.658c-14.424-54.342-34.215-113.382-34.215-113.382h168.395c0 0-19.456 59.039-34.215 113.382h-99.963zM423.389 380.99c0-6.038-4.697-10.735-10.399-10.735s-10.399 4.697-10.399 10.735c0 6.038 4.697 10.734 10.399 10.734s10.399-4.696 10.399-10.734v0zM409.635 298.47c0-6.038-4.697-11.070-10.399-11.070s-10.399 5.032-10.399 11.070c0 6.038 4.697 10.734 10.399 10.734s10.399-4.697 10.399-10.734v0zM384.476 339.059c0-6.038-4.697-10.734-10.399-10.734s-10.735 4.697-10.735 10.734c0 6.038 5.031 10.735 10.735 10.735s10.399-4.697 10.399-10.735v0zM230.171 254.19c-0.335-2.012-0.335-4.025-0.335-6.374 0-2.684 0-6.709 1.006-12.411l48.305-52.33c1.342-1.007 2.683-1.677 4.361-1.677s3.019 0.336 4.361 1.677c2.348 2.348 2.348 6.373 0 8.721l-57.697 62.394z" />
<glyph unicode="&#xe9b6;" glyph-name="HRAndRecruitment" d="M210.32 202.060c46.212 0 83.268 37.748 83.268 83.834 0 46.526-37.057 85.59-83.268 85.59s-83.268-39.064-83.268-85.59c0-46.087 37.056-83.834 83.268-83.834v0zM325.413 299.062c0-33.358-20.054-62.327-48.827-75.495 11.335-5.706 23.106-8.339 35.748-8.339 46.212 0 83.704 37.309 83.704 83.834s-37.493 83.834-83.704 83.834c-12.643 0-24.413-2.633-35.748-7.023 28.773-13.168 48.827-42.137 48.827-76.812v0zM259.147 202.060c0 0-28.773-27.652-43.16-59.255 0 0-28.773 30.286-53.187 51.793 0 0-122.068-53.548-115.093-137.383h333.943c0 0-26.158 102.708-122.504 144.845v0zM374.24 215.228l-33.133-26.336c0 0 67.574-37.748 63.214-107.098h72.369c0 0-17.438 91.296-102.45 133.433v0z" />
<glyph unicode="&#xe9b7;" glyph-name="IT" d="M403.138 347.712v-170.075h-285.829v170.075h285.829zM413.767 365.241h-307.085c-4.175 0-7.212-2.984-7.212-7.087v-191.334c0-3.729 3.037-7.087 7.212-7.087h307.085c4.175 0 7.212 3.356 7.212 7.087v191.334c0 4.103-3.036 7.087-7.212 7.087v0 0zM450.207 85.887c0 3.729-3.036 6.341-6.832 6.341h-366.3c-3.796 0-6.453-2.611-6.453-6.341v0c0-3.729 2.657-6.714 6.453-6.714h366.3c3.796 0 6.832 2.984 6.832 6.714v0 0zM420.979 151.529h-321.51l-28.849-51.47h379.586l-29.228 51.47zM219.418 116.47l10.629 14.173h60.354l10.628-14.173h-81.611z" />
<glyph unicode="&#xe9b8;" glyph-name="LegalJobs" d="M423.486 306.125c6.488 3.925 10.814 11.339 10.814 19.625 0 12.648-9.949 23.114-22.493 23.114-3.461 0-6.921-0.872-9.516-2.181-45.851 34.889-107.705 20.061-132.793 11.775v50.589c0 5.233-4.325 9.159-9.084 9.159-5.19 0-9.516-3.925-9.516-9.159v-50.589c-25.088 8.286-86.943 23.114-132.793-11.775-2.596 1.309-6.055 2.181-9.516 2.181-12.544 0-22.492-10.466-22.492-23.114 0-8.286 4.326-15.7 10.814-19.625l-52.772-87.659c0-24.858 28.981-45.356 64.45-45.356 35.902 0 64.883 20.498 64.883 45.356l-52.772 87.222c6.489 4.361 10.814 11.775 10.814 20.061 0 3.053-0.865 6.106-1.73 9.159 42.822 30.528 103.38 12.648 121.115 6.106v-268.21c-22.925-1.745-41.525-18.753-44.986-41.431h108.57c-3.461 22.678-22.060 39.687-44.986 41.431v268.21c17.735 6.542 78.292 24.423 121.115-6.106-0.865-3.053-1.73-6.106-1.73-9.159 0-8.286 4.325-15.7 10.814-19.625l-52.772-87.659c0-24.858 28.981-45.356 64.883-45.356 35.469 0 64.883 20.498 64.883 45.356l-53.204 87.659zM166.982 218.903l-0.433-0.436h-115.492l-0.432 0.436 51.041 84.606c2.163-0.436 4.758-1.308 6.921-1.308 2.596 0 4.758 0.872 7.353 1.308l51.041-84.606zM353.845 218.467l-0.433 0.436 51.041 84.606c2.596-0.436 4.758-1.309 7.353-1.309 2.163 0 4.758 0.872 6.921 1.309l51.041-84.606-0.433-0.436h-115.491z" />
<glyph unicode="&#xe9b9;" glyph-name="ManagementAndBA" d="M238.38 251.062h46.477v-64.852h-46.477v64.852zM432.551 208.767v-112.081c0-11.279-8.951-20.442-19.968-20.442h-304.684c-11.017 0-19.624 9.164-19.624 20.442v112.081h131.169v-30.311c0-6.344 5.164-11.631 11.361-11.631h61.625c6.197 0 11.361 5.287 11.361 11.631v30.311h128.759zM190.87 347.635c0 3.877 3.099 7.049 6.886 7.049h124.972c3.787 0 6.885-3.172 6.885-7.049v-30.663h-138.743v30.663zM219.445 228.153v30.664c0 6.344 5.164 11.631 11.361 11.631h61.625c6.197 0 11.361-5.287 11.361-11.631v-30.664h128.759v68.376c0 11.279-8.951 20.442-19.968 20.442h-64.036v30.663c0 14.803-11.361 26.434-25.82 26.434h-124.972c-14.459 0-25.821-11.631-25.821-26.434v-30.663h-64.035c-11.017 0-19.623-9.164-19.623-20.442v-68.376h131.169z" />
<glyph unicode="&#xe9ba;" glyph-name="MediaAndAdvertisement" d="M152.559 229.185v-12.936h-60.081v12.936h60.081zM332.438 242.49h-252.99v-176.301h252.99v176.301zM345.467 197.399v-85.748l95.911-45.461v176.301l-95.911-45.091zM213.363 256.166h78.539c15.925 11.827 26.059 30.677 26.059 52.114 0 36.591-29.317 65.79-65.147 65.79-36.193 0-65.51-29.199-65.51-65.79 0-21.437 10.134-40.287 26.059-52.114v0zM175.722 256.166c8.325 8.132 13.030 19.219 13.030 31.786 0 24.764-19.906 45.091-44.88 45.091-24.612 0-44.517-20.328-44.517-45.091 0-12.567 4.705-23.654 12.668-31.786h63.7z" />
<glyph unicode="&#xe9bb;" glyph-name="MedicalJobs" d="M165.928 103.204c-16.936 0-31.948 11.652-36.183 26.412-3.849-6.214-6.159-13.206-6.159-20.586 0-20.974 18.861-38.453 41.957-38.453 23.48 0 42.341 17.478 42.341 38.453 0 7.38-2.31 14.372-6.159 20.197-3.849-15.148-18.476-26.024-35.798-26.024v0zM388.412 418.207h-22.711c-4.619 0-8.084-3.495-8.084-7.769 0-4.661 3.464-8.156 8.084-8.156h14.627v-120.797c0-49.717-40.032-89.724-88.917-89.724h-13.087c-48.885 0-88.532 40.007-88.532 89.724v120.796h11.548c4.234 0 8.084 3.496 8.084 8.156 0 4.273-3.849 7.769-8.084 7.769h-19.631c-4.619 0-8.083-3.495-8.083-7.769v-128.953c0-58.262 46.19-105.26 103.159-106.037v-97.88c0-20.197-7.313-31.462-14.627-31.462-6.928 0-14.627 11.264-14.627 31.462 0 40.395-16.166 77.683-37.722 87.393-10.778 4.661-21.555 2.719-31.564-5.438-4.234 1.942-8.084 3.108-12.702 3.108-15.782 0-28.484-11.264-28.869-25.247v0c0.385-13.983 13.857-26.024 29.254-26.024 15.782 0 28.869 11.264 28.869 25.247 0 5.438-1.924 9.711-3.849 12.429 5.389 3.108 9.623 2.33 12.317 1.165 13.472-6.214 28.1-35.734 28.1-72.634 0-13.594 3.079-25.635 8.469-34.18 5.774-8.545 13.857-13.594 22.711-13.594 14.627 0 30.409 15.148 30.409 47.775v97.88c57.353 0.777 103.544 47.775 103.544 106.037v128.953c0 4.272-3.849 7.769-8.084 7.769v0z" />
<glyph unicode="&#xe9bc;" glyph-name="ReceptionAndCustomerCare" d="M325.404 201.745c-2.981 0.38-5.963 1.139-8.572 2.277v91.101c2.609 0.759 5.59 1.518 8.572 1.898v-95.276zM332.111 297.781h-1.49v-96.415h1.49c26.087 0 47.331 21.637 47.331 48.208s-21.243 48.208-47.331 48.208v0zM189.747 297.022c2.982-0.38 5.963-1.139 8.572-1.898v-91.101c-2.609-1.139-5.59-1.898-8.572-2.277v95.276zM135.708 249.573c0-26.571 21.243-48.208 47.703-48.208h1.118v96.036c-0.373 0.38-0.745 0.38-1.118 0.38-26.46 0-47.703-21.637-47.703-48.208v0zM330.993 313.724v-5.314h1.118c7.081 0 13.789-1.518 20.125-3.796v9.11c0 52.762-42.486 95.656-94.661 95.656s-94.661-42.893-94.661-95.656v-9.11c6.335 2.277 13.044 3.796 20.498 3.796h0.745v5.314c0 40.995 33.168 74.399 73.418 74.399 40.623 0 73.418-33.404 73.418-74.399v0zM338.075 190.738c-3.727-4.935-10.063-8.351-17.144-8.351h-52.175c-2.609 3.416-6.709 5.694-11.18 5.694-7.827 0-13.789-6.453-13.789-14.425 0-7.591 5.963-14.045 13.789-14.045 7.081 0 12.671 4.935 13.789 11.767h49.567c14.534 0 26.833 9.49 30.933 22.775-4.472-1.519-8.945-2.657-13.789-3.416v0zM313.105 155.057c0 0-7.827 1.898-14.908 9.11h-21.615c-3.354-7.212-10.808-12.147-19.007-12.147-11.553 0-21.243 9.869-21.243 21.637 0 12.147 9.69 21.637 21.243 21.637 5.59 0 10.435-1.898 14.534-5.694h21.615c5.963 4.935 11.18 10.628 15.652 17.082v93.758l4.845 1.518c2.981 1.139 5.963 1.898 8.945 2.278v0.38h0.745l-0.373 3.796v3.416c-10.435 35.681-36.15 60.734-65.964 60.734s-55.157-25.053-65.964-60.734v-7.591c3.354-0.38 6.335-1.139 9.317-2.277l4.845-1.518v-93.758c6.335-9.11 14.162-16.702 22.361-22.016-5.963-25.433-26.088-29.608-26.088-29.608-121.494-35.681-113.668-125.264-113.668-125.264h338.395c0 0 8.199 89.582-113.668 125.264v0z" />
<glyph unicode="&#xe9bd;" glyph-name="RestaurantsAndHospitality" d="M92.689 374.069h-10.151v-58.289h-9.71v58.289h-12.8v-58.289h-9.71v58.289h-10.593v-0.442l-4.414-79.926c0-13.248 8.386-24.729 20.303-28.703l-8.828-168.685c0-10.598 8.828-18.988 19.421-18.988s19.421 8.39 19.421 18.988l-8.828 168.685c11.917 3.974 20.745 15.455 20.745 28.703l-4.855 79.926v0.442zM476.69 248.218v48.574c0 73.303-47.228 77.277-47.228 77.277l-0.442-202.244v-75.51c0-10.598 8.386-18.988 18.98-18.988s18.98 8.39 18.98 18.988l-15.449 119.227c12.8 2.208 25.159 17.663 25.159 32.677v0zM256 331.236c-58.703 0-106.373-47.25-106.373-105.538 0-57.847 47.669-105.096 106.373-105.096 58.262 0 105.931 47.25 105.931 105.096 0 58.289-47.669 105.538-105.931 105.538v0zM256 374.069c-82.98 0-150.069-66.238-150.069-148.372s67.090-148.371 150.069-148.371c82.538 0 149.627 66.238 149.627 148.371s-67.089 148.371-149.627 148.371v0zM256 109.561c-64.883 0-117.407 52.106-117.407 116.136s52.524 116.136 117.407 116.136c64.442 0 116.966-52.106 116.966-116.136s-52.524-116.136-116.966-116.136v0z" />
</font>
</defs>
</svg>
